<svg width="16" height="16" viewBox="0 0 16 16" fill="none" xmlns="http://www.w3.org/2000/svg">
<g clip-path="url(#clip0_3064_2)">
<path d="M11.3335 1.99984H14.0002C14.177 1.99984 14.3465 2.07008 14.4716 2.1951C14.5966 2.32012 14.6668 2.48969 14.6668 2.6665V13.3332C14.6668 13.51 14.5966 13.6796 14.4716 13.8046C14.3465 13.9296 14.177 13.9998 14.0002 13.9998H2.00016C1.82335 13.9998 1.65378 13.9296 1.52876 13.8046C1.40373 13.6796 1.3335 13.51 1.3335 13.3332V2.6665C1.3335 2.48969 1.40373 2.32012 1.52876 2.1951C1.65378 2.07008 1.82335 1.99984 2.00016 1.99984H4.66683V0.666504H6.00016V1.99984H10.0002V0.666504H11.3335V1.99984ZM10.0002 3.33317H6.00016V4.6665H4.66683V3.33317H2.66683V5.99984H13.3335V3.33317H11.3335V4.6665H10.0002V3.33317ZM13.3335 7.33317H2.66683V12.6665H13.3335V7.33317Z" fill="#606060"/>
</g>
<defs>
<clipPath id="clip0_3064_2">
<rect width="16" height="16" fill="white"/>
</clipPath>
</defs>
</svg>
