<svg width="358" height="358" viewBox="0 0 358 358" fill="none" xmlns="http://www.w3.org/2000/svg">
<path d="M358 179C358 277.859 277.859 358 179 358C80.141 358 0 277.859 0 179C0 80.141 80.141 0 179 0C277.859 0 358 80.141 358 179ZM50.0842 179C50.0842 250.198 107.802 307.916 179 307.916C250.198 307.916 307.916 250.198 307.916 179C307.916 107.802 250.198 50.0842 179 50.0842C107.802 50.0842 50.0842 107.802 50.0842 179Z" fill="#6CA3DB"/>
<path d="M358 179C358 138.191 344.056 98.6079 318.479 66.8095C292.901 35.0111 257.227 12.9068 217.366 4.16002C177.506 -4.58678 135.854 0.549007 99.3124 18.7163C62.7708 36.8835 33.5338 66.9915 16.4467 104.05C-0.640326 141.109 -4.55155 182.895 5.36125 222.481C15.274 262.067 38.4157 297.078 70.9511 321.711C103.486 346.344 143.462 359.121 184.253 357.923C225.044 356.725 264.201 341.626 295.235 315.126L262.713 277.038C240.362 296.123 212.161 306.998 182.783 307.86C153.406 308.723 124.615 299.521 101.183 281.78C77.7512 264.04 61.0846 238.825 53.9454 210.315C46.8062 181.805 49.623 151.711 61.9291 125.021C74.2352 98.3315 95.2917 76.6477 121.609 63.5636C147.926 50.4796 177.924 46.7808 206.631 53.0802C235.339 59.3797 261.032 75.2992 279.453 98.2004C297.873 121.102 307.916 149.61 307.916 179H358Z" fill="#003366"/>
<path d="M358 179C358 151.689 351.751 124.74 339.73 100.217C327.71 75.6934 310.237 54.2456 288.65 37.5157C267.063 20.7858 241.934 9.21734 215.187 3.69605C188.44 -1.82524 160.785 -1.15295 134.337 5.66145C107.89 12.4759 83.3531 25.2517 62.6045 43.0107C41.8559 60.7698 25.4461 83.0411 14.6316 108.12C3.817 133.198 -1.1156 160.419 0.211431 187.698C1.53846 214.976 9.08993 241.59 22.2877 265.5L66.1358 241.297C56.6308 224.077 51.1922 204.91 50.2365 185.264C49.2807 165.618 52.8332 146.014 60.6219 127.952C68.4105 109.89 80.2288 93.8506 95.172 81.0605C110.115 68.2704 127.787 59.0693 146.834 54.1616C165.881 49.2538 185.799 48.7697 205.062 52.7461C224.325 56.7225 242.423 65.0541 257.97 77.103C273.517 89.1519 286.101 104.599 294.758 122.26C303.415 139.922 307.916 159.331 307.916 179H358Z" fill="#C6E0FE"/>
</svg>
