<svg width="386" height="172" viewBox="0 0 386 172" fill="none" xmlns="http://www.w3.org/2000/svg">
<circle cx="252" cy="29" r="1" fill="#D9D9D9"/>
<rect y="8" width="386" height="164" rx="8" fill="#D6E0E9"/>
<circle cx="205" cy="117" r="1" fill="#D9D9D9"/>
<circle cx="214" cy="77" r="1" fill="#D9D9D9"/>
<circle cx="148" cy="97" r="1" fill="#D9D9D9"/>
<circle r="1" transform="matrix(-1 0 0 1 334 140)" fill="#D9D9D9"/>
<circle cx="273" cy="75" r="1" fill="#D9D9D9"/>
<circle cx="241" cy="48" r="1" fill="#D9D9D9"/>
<circle cx="252" cy="29" r="1" fill="#D9D9D9"/>
<circle cx="303" cy="78" r="1" fill="#D9D9D9"/>
<circle cx="311" cy="107" r="1" fill="#D9D9D9"/>
<circle cx="306.5" cy="136.5" r="0.5" fill="#D9D9D9"/>
<circle cx="190.5" cy="57.5" r="0.5" fill="#D9D9D9"/>
<circle cx="124.5" cy="77.5" r="0.5" fill="#D9D9D9"/>
<circle r="0.5" transform="matrix(-1 0 0 1 357.5 120.5)" fill="#D9D9D9"/>
<path d="M190.5 114L191.119 116.881L194 117.5L191.119 118.119L190.5 121L189.881 118.119L187 117.5L189.881 116.881L190.5 114Z" fill="#D9D9D9"/>
<path d="M231.808 33.9223C232.478 13.1756 220.431 13.8448 215.077 7.82155C224.179 -3.42161 243.855 0.459834 251.217 5.8138C264.01 1.54949 271.673 10.6408 273.941 15.7844C273.962 15.8309 273.984 15.8712 274.012 15.9137C278.272 22.4138 281.113 43.9927 282.002 53.9998C255.901 53.9998 251.217 47.3073 243.855 33.9223C233.147 39.2763 231.139 37.9378 231.808 33.9223Z" fill="white"/>
<path d="M237.163 23.8832L267.279 19.8677" stroke="#6C6C7A" stroke-width="1.71428" stroke-linecap="round"/>
<path d="M238.501 31.2454L253.224 28.5684" stroke="#6C6C7A" stroke-width="1.71428" stroke-linecap="round"/>
<path d="M234.486 17.86L249.21 15.5177L263.933 13.1753" stroke="#6C6C7A" stroke-width="1.71428" stroke-linecap="round"/>
<path d="M267.949 7.82099C259.248 0.459456 245.194 -0.879623 237.163 0.459231C241.848 1.79761 251.217 4.74208 251.217 5.81288C260.587 3.80506 259.918 4.47496 267.949 7.82099Z" fill="#E3E4EA"/>
<path d="M265.648 52.714C254.94 52.714 236.476 43.7901 231.791 36.4283C233.446 37.8862 235.293 37.0336 243.791 33.8569C246.791 38.9998 254.94 49.3677 265.648 52.714Z" fill="#E3E4EA"/>
<path d="M125.481 66.611C122.148 82.4433 114.714 93.3553 100.759 85.6273C100.33 85.3892 99.8133 85.3238 99.3451 85.4727C93.1138 87.4541 84.031 90.2541 75.5244 92.6986C83.8476 87.8624 83.171 77.144 85.5583 71.9553C85.6402 71.7774 85.696 71.5957 85.7242 71.4019C86.4043 66.7328 90.112 56.3622 99.2325 52.2165L134.795 34.0208C127.644 38.4801 126.832 56.4789 125.481 66.611Z" fill="white"/>
<path d="M93.3057 69.4096L117.014 57.5556M94.9991 61.7891L118.707 49.0884" stroke="#6C6C7A" stroke-width="2.1231" stroke-linecap="round"/>
<path d="M99.7697 83.4233C91.3025 89.3504 67.2409 94.519 52 95.3658C64.7008 98.7526 101.76 95.3658 115.693 86.0772C107.068 90.058 103.157 86.8102 99.7697 83.4233Z" fill="#E3E4EA"/>
<path d="M192.846 36.5908C193.054 35.5696 194.514 35.5696 194.722 36.5908L195.318 39.5038C195.395 39.8798 195.688 40.1735 196.064 40.2504L198.977 40.8458C199.999 41.0545 199.999 42.5137 198.977 42.7224L196.064 43.3178C195.688 43.3947 195.395 43.6884 195.318 44.0644L194.722 46.9773C194.514 47.9986 193.054 47.9986 192.846 46.9773L192.25 44.0644C192.174 43.6884 191.88 43.3947 191.504 43.3178L188.591 42.7224C187.57 42.5137 187.57 41.0545 188.591 40.8458L191.504 40.2504C191.88 40.1735 192.174 39.8797 192.25 39.5038L192.846 36.5908Z" fill="white"/>
<path d="M122.767 96L123.576 99.9584L127.535 100.767L123.576 101.576L122.767 105.535L121.958 101.576L118 100.767L121.958 99.9584L122.767 96Z" fill="white"/>
<path d="M343.767 34L344.576 37.9584L348.535 38.7674L344.576 39.5765L343.767 43.5348L342.958 39.5765L339 38.7674L342.958 37.9584L343.767 34Z" fill="white"/>
<path d="M123.668 26L124.477 29.9584L128.435 30.7674L124.477 31.5765L123.668 35.5348L122.859 31.5765L118.9 30.7674L122.859 29.9584L123.668 26Z" fill="white"/>
<path d="M13.7674 53.2427L14.5765 57.201L18.5348 58.0101L14.5765 58.8192L13.7674 62.7775L12.9584 58.8192L9 58.0101L12.9584 57.201L13.7674 53.2427Z" fill="white"/>
<path d="M59.2362 69.7935C59.4541 68.7271 60.9777 68.7271 61.1957 69.7935L61.8173 72.835C61.8975 73.2275 62.2043 73.5343 62.5968 73.6145L65.6384 74.2362C66.7047 74.4541 66.7047 75.9777 65.6384 76.1957L62.5968 76.8173C62.2043 76.8975 61.8975 77.2043 61.8173 77.5968L61.1957 80.6384C60.9777 81.7047 59.4541 81.7047 59.2362 80.6384L58.6145 77.5968C58.5343 77.2043 58.2275 76.8975 57.835 76.8173L54.7935 76.1957C53.7271 75.9777 53.7271 74.4541 54.7935 74.2362L57.835 73.6145C58.2275 73.5343 58.5343 73.2275 58.6145 72.835L59.2362 69.7935Z" fill="white"/>
<path d="M29.1336 111.159C29.3516 110.092 30.8752 110.092 31.0931 111.159L31.7148 114.2C31.795 114.593 32.1018 114.9 32.4943 114.98L35.5358 115.601C36.6022 115.819 36.6022 117.343 35.5358 117.561L32.4943 118.183C32.1018 118.263 31.795 118.57 31.7148 118.962L31.0931 122.004C30.8752 123.07 29.3516 123.07 29.1336 122.004L28.512 118.962C28.4317 118.57 28.125 118.263 27.7325 118.183L24.6909 117.561C23.6246 117.343 23.6246 115.819 24.6909 115.601L27.7325 114.98C28.125 114.9 28.4317 114.593 28.512 114.2L29.1336 111.159Z" fill="white"/>
<path d="M235.236 74.7935C235.454 73.7271 236.978 73.7271 237.196 74.7935L237.817 77.835C237.898 78.2275 238.204 78.5343 238.597 78.6145L241.638 79.2362C242.705 79.4541 242.705 80.9777 241.638 81.1957L238.597 81.8173C238.204 81.8975 237.898 82.2043 237.817 82.5968L237.196 85.6384C236.978 86.7047 235.454 86.7047 235.236 85.6384L234.614 82.5968C234.534 82.2043 234.228 81.8975 233.835 81.8173L230.793 81.1957C229.727 80.9777 229.727 79.4541 230.793 79.2362L233.835 78.6145C234.228 78.5343 234.534 78.2275 234.614 77.835L235.236 74.7935Z" fill="white"/>
<path d="M277.236 89.7935C277.454 88.7271 278.978 88.7271 279.196 89.7935L279.817 92.835C279.898 93.2275 280.204 93.5343 280.597 93.6145L283.638 94.2362C284.705 94.4541 284.705 95.9777 283.638 96.1957L280.597 96.8173C280.204 96.8975 279.898 97.2043 279.817 97.5968L279.196 100.638C278.978 101.705 277.454 101.705 277.236 100.638L276.614 97.5968C276.534 97.2043 276.228 96.8975 275.835 96.8173L272.793 96.1957C271.727 95.9777 271.727 94.4541 272.793 94.2362L275.835 93.6145C276.228 93.5343 276.534 93.2275 276.614 92.835L277.236 89.7935Z" fill="white"/>
<path d="M265.236 121.793C265.454 120.727 266.978 120.727 267.196 121.793L267.817 124.835C267.898 125.228 268.204 125.534 268.597 125.614L271.638 126.236C272.705 126.454 272.705 127.978 271.638 128.196L268.597 128.817C268.204 128.898 267.898 129.204 267.817 129.597L267.196 132.638C266.978 133.705 265.454 133.705 265.236 132.638L264.614 129.597C264.534 129.204 264.228 128.898 263.835 128.817L260.793 128.196C259.727 127.978 259.727 126.454 260.793 126.236L263.835 125.614C264.228 125.534 264.534 125.228 264.614 124.835L265.236 121.793Z" fill="white"/>
<path d="M321.767 75L322.576 78.9584L326.535 79.7674L322.576 80.5765L321.767 84.5348L320.958 80.5765L317 79.7674L320.958 78.9584L321.767 75Z" fill="white"/>
<path d="M107.767 129L108.576 132.958L112.535 133.767L108.576 134.576L107.767 138.535L106.958 134.576L103 133.767L106.958 132.958L107.767 129Z" fill="white"/>
<path d="M361.768 92L360.959 95.9584L357 96.7674L360.959 97.5765L361.768 101.535L362.577 97.5765L366.535 96.7674L362.577 95.9584L361.768 92Z" fill="white"/>
<path d="M0 115H386V156C386 163.542 386 167.314 383.657 169.657C381.314 172 377.542 172 370 172H16C8.45753 172 4.68629 172 2.34315 169.657C0 167.314 0 163.542 0 156V115Z" fill="#003366"/>
<path d="M172.859 77.3743C174.554 73.1367 176.673 65.5089 169.045 60L202.522 74.8317C207.683 76.767 210.634 79.1932 211.563 83.2315C212.208 86.0366 211.382 88.9263 210.428 91.6418L210.329 91.9226C207.435 100.159 203.296 111.937 205.065 115.286L182.182 111.275C179.644 120.581 172.79 122.193 167.739 119.358C162.331 116.323 161.728 108.956 163.444 102.997C165.508 95.8347 169.43 85.9479 172.859 77.3743Z" fill="white"/>
<path d="M174.712 95.5962L200.985 102.8" stroke="#6A6C7D" stroke-width="3.56253" stroke-linecap="round"/>
<path d="M172.88 102.915L199.425 109.041" stroke="#6A6C7D" stroke-width="3.56253" stroke-linecap="round"/>
<path d="M172.17 110.073L198.868 115.497" stroke="#6A6C7D" stroke-width="3.56253" stroke-linecap="round"/>
<path d="M222.175 118.48C209.038 125.684 183.477 123.604 170.261 120.3C178.312 118.181 181.335 113.818 182.182 111.276L222.175 118.48Z" fill="#E3E4EA"/>
</svg>
