<svg width="512" height="512" viewBox="0 0 512 512" fill="none" xmlns="http://www.w3.org/2000/svg">
<path d="M244.499 180.556H232.698C230.808 180.556 229.271 178.927 229.271 176.925C229.271 174.923 230.808 173.295 232.698 173.295H249.434C250.492 173.295 251.338 172.398 251.338 171.278C251.338 170.157 250.492 169.261 249.434 169.261H242.582C240.692 169.261 239.155 167.633 239.155 165.63C239.155 163.628 240.692 162 242.582 162H251.746C254.425 162 257.02 163.016 259.078 164.854L292.621 194.973C293.397 195.661 293.383 196.916 292.607 197.603L259.05 226.99C257.02 228.768 254.468 229.739 251.831 229.739H238.027C236.138 229.739 234.601 228.111 234.601 226.109C234.601 224.107 236.138 222.478 238.027 222.478H249.067C250.322 222.478 251.352 221.403 251.352 220.058C251.352 218.728 250.336 217.638 249.067 217.638H242.215C240.537 217.638 239.169 216.189 239.169 214.411C239.169 212.633 240.537 211.184 242.215 211.184H252.874C254.552 211.184 255.92 209.734 255.92 207.956C255.92 206.179 254.552 204.729 252.874 204.729H249.829C248.151 204.729 246.783 203.28 246.783 201.502C246.783 199.724 248.151 198.275 249.829 198.275H257.443C258.698 198.275 259.727 197.199 259.727 195.855C259.727 194.51 258.712 193.434 257.443 193.434H239.184C237.506 193.434 236.138 191.985 236.138 190.207C236.138 188.429 237.506 186.98 239.184 186.98H244.513C246.191 186.98 247.559 185.531 247.559 183.753C247.545 182.005 246.191 180.556 244.499 180.556Z" fill="#003366"/>
<path d="M221.752 180.816C223.829 180.816 225.513 179.131 225.513 177.052C225.513 174.974 223.829 173.289 221.752 173.289C219.676 173.289 217.992 174.974 217.992 177.052C217.992 179.131 219.676 180.816 221.752 180.816Z" fill="#003366"/>
<path d="M233.032 218.45C235.108 218.45 236.792 216.766 236.792 214.687C236.792 212.609 235.108 210.924 233.032 210.924C230.955 210.924 229.271 212.609 229.271 214.687C229.271 216.766 230.955 218.45 233.032 218.45Z" fill="#003366"/>
<path d="M221.023 187.275H230.115C231.785 187.275 233.146 188.637 233.146 190.308C233.146 191.98 231.785 193.342 230.115 193.342H221.023C219.353 193.342 217.992 191.98 217.992 190.308C217.992 188.637 219.339 187.275 221.023 187.275Z" fill="#003366"/>
<path d="M228.553 198.397H240.768C242.69 198.397 244.258 199.76 244.258 201.431C244.258 203.102 242.69 204.464 240.768 204.464H228.553C226.631 204.464 225.063 203.102 225.063 201.431C225.063 199.76 226.631 198.397 228.553 198.397Z" fill="#003366"/>
<path d="M144.171 254.35C142.792 254.35 141.597 253.886 140.585 252.959C139.572 252.033 139.066 250.901 139.066 249.565C139.066 248.228 139.572 247.096 140.585 246.17C141.597 245.243 142.792 244.779 144.171 244.779C145.55 244.779 146.734 245.243 147.725 246.17C148.737 247.096 149.244 248.228 149.244 249.565C149.244 250.901 148.737 252.033 147.725 252.959C146.734 253.886 145.55 254.35 144.171 254.35ZM146.917 278.05C146.917 279.278 146.95 281.251 147.014 283.967C147.1 286.683 147.143 288.655 147.143 289.884C147.143 291.134 146.723 292.168 145.883 292.988C145.043 293.785 143.977 294.184 142.685 294.184C141.392 294.184 140.326 293.785 139.486 292.988C138.646 292.168 138.226 291.134 138.226 289.884C138.226 288.655 138.183 286.683 138.097 283.967C138.032 281.251 138 279.278 138 278.05C138 276.131 138.108 273.728 138.323 270.84C138.538 267.951 138.646 265.548 138.646 263.629C138.646 262.379 139.066 261.355 139.906 260.558C140.746 259.739 141.812 259.329 143.105 259.329C144.397 259.329 145.463 259.739 146.303 260.558C147.143 261.355 147.563 262.379 147.563 263.629C147.563 265.548 147.456 267.951 147.24 270.84C147.025 273.728 146.917 276.131 146.917 278.05Z" fill="#003366"/>
<path d="M170.277 295.121C168.424 295.121 166.475 294.906 164.429 294.475L164.396 307.667C164.396 308.917 163.976 309.951 163.136 310.771C162.296 311.59 161.23 311.999 159.938 311.999C158.645 311.999 157.579 311.59 156.739 310.771C155.899 309.951 155.479 308.917 155.479 307.667C155.479 306.654 155.501 302.633 155.544 295.606C155.587 290.39 155.587 286.133 155.544 282.835C155.479 278.179 155.328 274.17 155.091 270.807C154.768 266.173 154.607 264.05 154.607 264.438C154.607 262.649 155.005 261.118 155.802 259.846C156.728 258.402 157.978 257.68 159.55 257.68C160.756 257.68 161.769 258.09 162.587 258.909C163.406 259.728 163.815 260.709 163.815 261.851L163.783 262.174C165.226 261.355 166.669 260.752 168.112 260.364C169.577 259.954 171.041 259.749 172.506 259.749C177.46 259.749 181.079 261.851 183.362 266.054C185.063 269.223 185.914 273.329 185.914 278.373C185.914 283.094 184.568 287.006 181.876 290.11C178.989 293.451 175.123 295.121 170.277 295.121ZM172.506 268.382C171.149 268.382 169.77 268.706 168.37 269.352C166.97 269.977 165.56 270.926 164.138 272.198C164.396 276.638 164.526 281.089 164.526 285.551C166.443 286.176 168.36 286.489 170.277 286.489C172.495 286.489 174.197 285.702 175.381 284.128C176.458 282.706 176.997 280.787 176.997 278.373C176.997 275.463 176.868 273.448 176.609 272.327C175.985 269.697 174.617 268.382 172.506 268.382Z" fill="#003366"/>
<path d="M205.687 295.121C203.835 295.121 201.886 294.906 199.839 294.475L199.807 307.667C199.807 308.917 199.387 309.951 198.547 310.771C197.707 311.59 196.641 311.999 195.348 311.999C194.056 311.999 192.99 311.59 192.15 310.771C191.31 309.951 190.89 308.917 190.89 307.667C190.89 306.654 190.911 302.633 190.954 295.606C190.997 290.39 190.997 286.133 190.954 282.835C190.89 278.179 190.739 274.17 190.502 270.807C190.179 266.173 190.017 264.05 190.017 264.438C190.017 262.649 190.416 261.118 191.213 259.846C192.139 258.402 193.388 257.68 194.961 257.68C196.167 257.68 197.179 258.09 197.998 258.909C198.816 259.728 199.226 260.709 199.226 261.851L199.193 262.174C200.636 261.355 202.079 260.752 203.523 260.364C204.987 259.954 206.452 259.749 207.917 259.749C212.871 259.749 216.489 261.851 218.772 266.054C220.474 269.223 221.325 273.329 221.325 278.373C221.325 283.094 219.979 287.006 217.286 290.11C214.4 293.451 210.534 295.121 205.687 295.121ZM207.917 268.382C206.56 268.382 205.181 268.706 203.781 269.352C202.381 269.977 200.97 270.926 199.549 272.198C199.807 276.638 199.936 281.089 199.936 285.551C201.853 286.176 203.77 286.489 205.687 286.489C207.906 286.489 209.607 285.702 210.792 284.128C211.869 282.706 212.408 280.787 212.408 278.373C212.408 275.463 212.278 273.448 212.02 272.327C211.395 269.697 210.027 268.382 207.917 268.382Z" fill="#003366"/>
<path d="M239.483 295.121C235.498 295.121 232.073 293.753 229.208 291.015C226.064 288.019 224.416 284.021 224.265 279.02C224.114 274.256 225.417 270.01 228.174 266.281C231.448 261.883 236.004 259.685 241.841 259.685C246.149 259.685 249.574 261.409 252.115 264.858C254.398 267.962 255.54 271.81 255.54 276.401C255.54 281.402 254.205 285.67 251.534 289.205C248.54 293.149 244.523 295.121 239.483 295.121ZM241.421 268.221C238.772 268.199 236.682 269.406 235.153 271.842C233.861 273.89 233.215 276.282 233.215 279.02C233.215 281.606 233.947 283.589 235.412 284.969C236.575 286.068 237.932 286.618 239.483 286.618C241.356 286.618 242.983 285.982 244.361 284.71C245.934 283.223 246.774 281.208 246.881 278.664C247.161 271.723 245.341 268.242 241.421 268.221Z" fill="#003366"/>
<path d="M283.707 295.03C281.866 295.03 279.928 294.813 277.894 294.38L277.862 307.644C277.862 308.901 277.445 309.941 276.61 310.765C275.775 311.588 274.715 312 273.431 312C272.146 312 271.086 311.588 270.251 310.765C269.416 309.941 268.999 308.901 268.999 307.644C268.999 306.625 269.02 302.583 269.063 295.518C269.106 290.273 269.106 285.992 269.063 282.676C268.999 277.995 268.849 273.964 268.614 270.583C268.292 265.923 268.132 263.788 268.132 264.178C268.132 262.379 268.528 260.841 269.32 259.562C270.241 258.11 271.482 257.384 273.045 257.384C274.244 257.384 275.25 257.796 276.064 258.619C276.877 259.443 277.284 260.429 277.284 261.578L277.252 261.903C278.686 261.079 280.121 260.472 281.555 260.082C283.011 259.67 284.467 259.464 285.923 259.464C290.847 259.464 294.443 261.578 296.713 265.804C298.404 268.99 299.25 273.118 299.25 278.19C299.25 282.936 297.912 286.87 295.236 289.991C292.367 293.35 288.524 295.03 283.707 295.03ZM285.923 268.144C284.574 268.144 283.204 268.47 281.812 269.12C280.421 269.748 279.018 270.702 277.605 271.981C277.862 276.445 277.991 280.921 277.991 285.407C279.896 286.036 281.801 286.35 283.707 286.35C285.912 286.35 287.603 285.559 288.781 283.977C289.851 282.546 290.386 280.617 290.386 278.19C290.386 275.264 290.258 273.238 290.001 272.111C289.38 269.467 288.021 268.144 285.923 268.144Z" fill="#003366"/>
<path d="M331.781 295.258C330.796 295.258 329.233 294.174 327.092 292.007C325.122 292.96 323.388 293.675 321.89 294.152C320.391 294.651 319.117 294.9 318.068 294.9C312.909 294.9 309.034 293.502 306.443 290.706C303.874 287.91 302.589 283.727 302.589 278.157C302.589 272.934 304.495 268.47 308.306 264.763C312.116 261.036 316.677 259.172 321.986 259.172C324.02 259.172 326.375 259.757 329.051 260.927C332.284 262.336 333.9 263.972 333.9 265.836C333.9 266.617 333.654 267.299 333.161 267.884C332.947 268.751 332.776 269.846 332.648 271.168C332.541 272.468 332.487 273.996 332.487 275.752C332.487 279.891 332.776 282.871 333.354 284.692C333.418 284.887 333.911 286.014 334.831 288.073C335.666 289.937 336.084 290.999 336.084 291.259C336.084 292.408 335.645 293.361 334.767 294.12C333.911 294.878 332.915 295.258 331.781 295.258ZM323.816 272.956C323.816 272.262 323.859 271.471 323.945 270.583C324.052 269.672 324.202 268.665 324.394 267.559C323.966 267.343 323.581 267.191 323.238 267.104C322.917 266.996 322.639 266.942 322.403 266.942C319.492 266.942 316.944 268.101 314.76 270.42C312.577 272.718 311.485 275.383 311.485 278.418C311.485 281.322 311.999 283.511 313.026 284.984C314.054 286.437 315.595 287.163 317.651 287.163C318.978 287.163 320.23 286.946 321.408 286.512C322.607 286.057 323.731 285.396 324.78 284.529C324.138 279.371 323.816 275.513 323.816 272.956Z" fill="#003366"/>
<path d="M372.532 265.641C370.199 270.561 366.506 278.287 361.453 288.821C358.713 294.477 356.626 299.17 355.191 302.897C354.742 304.241 354.035 306.235 353.072 308.879C352.301 310.916 350.931 311.935 348.961 311.935C347.741 311.935 346.67 311.534 345.75 310.732C344.829 309.93 344.369 308.922 344.369 307.709C344.369 305.693 346.638 299.722 351.177 289.796C348.822 285.093 345.086 278.168 339.969 269.022C339.456 268.199 338.931 267.364 338.396 266.519C337.818 265.522 337.529 264.612 337.529 263.788C337.529 262.618 337.989 261.588 338.91 260.7C339.83 259.811 340.89 259.367 342.089 259.367C343.502 259.367 344.604 259.898 345.397 260.96C348.437 265.056 351.98 271.222 356.026 279.458C358.317 274.321 359.708 271.222 360.201 270.16C361.721 266.931 363.209 264.092 364.665 261.643C365.585 260.082 366.848 259.302 368.454 259.302C369.653 259.302 370.723 259.714 371.665 260.537C372.607 261.361 373.078 262.369 373.078 263.561C373.078 264.189 372.896 264.883 372.532 265.641Z" fill="#003366"/>
<path d="M212.848 345.208C211.771 345.208 210.853 344.963 210.096 344.472C209.349 343.981 208.827 343.309 208.528 342.456L210.112 341.528C210.56 342.787 211.488 343.416 212.896 343.416C213.589 343.416 214.107 343.283 214.448 343.016C214.8 342.739 214.976 342.381 214.976 341.944C214.976 341.485 214.789 341.139 214.416 340.904C214.043 340.659 213.381 340.392 212.432 340.104C211.899 339.944 211.467 339.795 211.136 339.656C210.805 339.517 210.453 339.325 210.08 339.08C209.717 338.824 209.445 338.509 209.264 338.136C209.083 337.763 208.992 337.325 208.992 336.824C208.992 335.832 209.344 335.048 210.048 334.472C210.752 333.885 211.6 333.592 212.592 333.592C213.488 333.592 214.272 333.811 214.944 334.248C215.616 334.685 216.133 335.288 216.496 336.056L214.944 336.952C214.475 335.907 213.691 335.384 212.592 335.384C212.059 335.384 211.632 335.512 211.312 335.768C210.992 336.013 210.832 336.349 210.832 336.776C210.832 337.192 210.992 337.523 211.312 337.768C211.643 338.003 212.235 338.253 213.088 338.52C213.515 338.659 213.824 338.765 214.016 338.84C214.219 338.904 214.496 339.011 214.848 339.16C215.211 339.309 215.483 339.459 215.664 339.608C215.845 339.757 216.037 339.944 216.24 340.168C216.453 340.392 216.603 340.648 216.688 340.936C216.773 341.224 216.816 341.549 216.816 341.912C216.816 342.925 216.448 343.731 215.712 344.328C214.987 344.915 214.032 345.208 212.848 345.208ZM232.475 333.8V335.56H229.323V345H227.483V335.56H224.315V333.8H232.475ZM249.755 343.528C248.635 344.648 247.264 345.208 245.643 345.208C244.022 345.208 242.646 344.648 241.515 343.528C240.395 342.397 239.835 341.021 239.835 339.4C239.835 337.779 240.395 336.408 241.515 335.288C242.646 334.157 244.022 333.592 245.643 333.592C247.264 333.592 248.635 334.157 249.755 335.288C250.886 336.408 251.451 337.779 251.451 339.4C251.451 341.021 250.886 342.397 249.755 343.528ZM242.811 342.28C243.579 343.037 244.523 343.416 245.643 343.416C246.763 343.416 247.702 343.037 248.459 342.28C249.227 341.512 249.611 340.552 249.611 339.4C249.611 338.248 249.227 337.293 248.459 336.536C247.702 335.768 246.763 335.384 245.643 335.384C244.523 335.384 243.579 335.768 242.811 336.536C242.054 337.293 241.675 338.248 241.675 339.4C241.675 340.552 242.054 341.512 242.811 342.28ZM266.713 345L264.345 340.92H262.169V345H260.329V333.8H264.809C265.812 333.8 266.66 334.152 267.353 334.856C268.057 335.549 268.409 336.397 268.409 337.4C268.409 338.115 268.201 338.771 267.785 339.368C267.38 339.955 266.847 340.381 266.185 340.648L268.729 345H266.713ZM262.169 335.528V339.272H264.809C265.3 339.272 265.716 339.091 266.057 338.728C266.399 338.365 266.569 337.923 266.569 337.4C266.569 336.877 266.399 336.435 266.057 336.072C265.716 335.709 265.3 335.528 264.809 335.528H262.169ZM279.182 343.24H284.142V345H277.342V333.8H284.062V335.56H279.182V338.472H283.662V340.216H279.182V343.24ZM296.754 345.208C295.677 345.208 294.76 344.963 294.002 344.472C293.256 343.981 292.733 343.309 292.434 342.456L294.018 341.528C294.466 342.787 295.394 343.416 296.802 343.416C297.496 343.416 298.013 343.283 298.354 343.016C298.706 342.739 298.882 342.381 298.882 341.944C298.882 341.485 298.696 341.139 298.322 340.904C297.949 340.659 297.288 340.392 296.338 340.104C295.805 339.944 295.373 339.795 295.042 339.656C294.712 339.517 294.36 339.325 293.986 339.08C293.624 338.824 293.352 338.509 293.17 338.136C292.989 337.763 292.898 337.325 292.898 336.824C292.898 335.832 293.25 335.048 293.954 334.472C294.658 333.885 295.506 333.592 296.498 333.592C297.394 333.592 298.178 333.811 298.85 334.248C299.522 334.685 300.04 335.288 300.402 336.056L298.85 336.952C298.381 335.907 297.597 335.384 296.498 335.384C295.965 335.384 295.538 335.512 295.218 335.768C294.898 336.013 294.738 336.349 294.738 336.776C294.738 337.192 294.898 337.523 295.218 337.768C295.549 338.003 296.141 338.253 296.994 338.52C297.421 338.659 297.73 338.765 297.922 338.84C298.125 338.904 298.402 339.011 298.754 339.16C299.117 339.309 299.389 339.459 299.57 339.608C299.752 339.757 299.944 339.944 300.146 340.168C300.36 340.392 300.509 340.648 300.594 340.936C300.68 341.224 300.722 341.549 300.722 341.912C300.722 342.925 300.354 343.731 299.618 344.328C298.893 344.915 297.938 345.208 296.754 345.208Z" fill="#003366"/>
</svg>
