<svg width="430" height="156" viewBox="0 0 430 156" fill="none" xmlns="http://www.w3.org/2000/svg">
<path d="M53.4302 54.7238C51.8231 54.7238 50.4294 54.1839 49.2492 53.1041C48.0689 52.0243 47.4788 50.7059 47.4788 49.149C47.4788 47.5921 48.0689 46.2737 49.2492 45.1939C50.4294 44.1141 51.8231 43.5742 53.4302 43.5742C55.0374 43.5742 56.4185 44.1141 57.5737 45.1939C58.7539 46.2737 59.344 47.5921 59.344 49.149C59.344 50.7059 58.7539 52.0243 57.5737 53.1041C56.4185 54.1839 55.0374 54.7238 53.4302 54.7238ZM56.632 82.334C56.632 83.7653 56.6696 86.0631 56.745 89.2271C56.8454 92.3912 56.8956 94.6889 56.8956 96.1203C56.8956 97.5767 56.406 98.7821 55.4266 99.7363C54.4473 100.665 53.2042 101.13 51.6975 101.13C50.1908 101.13 48.9478 100.665 47.9685 99.7363C46.9891 98.7821 46.4994 97.5767 46.4994 96.1203C46.4994 94.6889 46.4492 92.3912 46.3488 89.2271C46.2734 86.0631 46.2358 83.7653 46.2358 82.334C46.2358 80.0991 46.3613 77.2991 46.6124 73.9342C46.8636 70.5692 46.9891 67.7693 46.9891 65.5343C46.9891 64.0778 47.4788 62.885 48.4581 61.9559C49.4375 61.0017 50.6805 60.5246 52.1872 60.5246C53.6939 60.5246 54.9369 61.0017 55.9163 61.9559C56.8956 62.885 57.3853 64.0778 57.3853 65.5343C57.3853 67.7693 57.2598 70.5692 57.0086 73.9342C56.7575 77.2991 56.632 80.0991 56.632 82.334ZM83.8655 102.222C81.7059 102.222 79.4333 101.971 77.0477 101.469L77.01 116.837C77.01 118.294 76.5204 119.499 75.541 120.453C74.5617 121.408 73.3186 121.885 71.8119 121.885C70.3052 121.885 69.0622 121.408 68.0829 120.453C67.1035 119.499 66.6138 118.294 66.6138 116.837C66.6138 115.657 66.6389 110.974 66.6892 102.787C66.7394 96.7104 66.7394 91.7508 66.6892 87.9088C66.6138 82.4847 66.4381 77.8139 66.1618 73.8965C65.7852 68.4975 65.5968 66.024 65.5968 66.476C65.5968 64.3917 66.0614 62.6088 66.9905 61.1272C68.0703 59.4448 69.5268 58.6035 71.3599 58.6035C72.7662 58.6035 73.9464 59.0806 74.9007 60.0349C75.8549 60.9891 76.332 62.1317 76.332 63.4626L76.2944 63.8393C77.9768 62.885 79.6593 62.1819 81.3418 61.7299C83.0494 61.2528 84.757 61.0142 86.4646 61.0142C92.2402 61.0142 96.459 63.4626 99.1208 68.3594C101.105 72.0508 102.097 76.8345 102.097 82.7107C102.097 88.2101 100.527 92.7679 97.3881 96.3839C94.0232 100.276 89.5156 102.222 83.8655 102.222ZM86.4646 71.0714C84.8825 71.0714 83.2754 71.4481 81.6431 72.2015C80.0109 72.9297 78.3661 74.0346 76.7087 75.5162C77.01 80.6892 77.1607 85.8747 77.1607 91.0728C79.3956 91.8011 81.6306 92.1652 83.8655 92.1652C86.452 92.1652 88.4358 91.2486 89.817 89.4155C91.0725 87.7581 91.7003 85.5232 91.7003 82.7107C91.7003 79.3206 91.5497 76.9727 91.2483 75.6669C90.5201 72.6032 88.9255 71.0714 86.4646 71.0714ZM125.149 102.222C122.989 102.222 120.717 101.971 118.331 101.469L118.294 116.837C118.294 118.294 117.804 119.499 116.824 120.453C115.845 121.408 114.602 121.885 113.095 121.885C111.589 121.885 110.346 121.408 109.366 120.453C108.387 119.499 107.897 118.294 107.897 116.837C107.897 115.657 107.922 110.974 107.973 102.787C108.023 96.7104 108.023 91.7508 107.973 87.9088C107.897 82.4847 107.722 77.8139 107.445 73.8965C107.069 68.4975 106.88 66.024 106.88 66.476C106.88 64.3917 107.345 62.6088 108.274 61.1272C109.354 59.4448 110.81 58.6035 112.643 58.6035C114.05 58.6035 115.23 59.0806 116.184 60.0349C117.138 60.9891 117.616 62.1317 117.616 63.4626L117.578 63.8393C119.26 62.885 120.943 62.1819 122.625 61.7299C124.333 61.2528 126.04 61.0142 127.748 61.0142C133.524 61.0142 137.742 63.4626 140.404 68.3594C142.388 72.0508 143.38 76.8345 143.38 82.7107C143.38 88.2101 141.811 92.7679 138.672 96.3839C135.307 100.276 130.799 102.222 125.149 102.222ZM127.748 71.0714C126.166 71.0714 124.559 71.4481 122.927 72.2015C121.294 72.9297 119.65 74.0346 117.992 75.5162C118.294 80.6892 118.444 85.8747 118.444 91.0728C120.679 91.8011 122.914 92.1652 125.149 92.1652C127.735 92.1652 129.719 91.2486 131.1 89.4155C132.356 87.7581 132.984 85.5232 132.984 82.7107C132.984 79.3206 132.833 76.9727 132.532 75.6669C131.804 72.6032 130.209 71.0714 127.748 71.0714ZM164.549 102.222C159.903 102.222 155.911 100.628 152.571 97.4386C148.905 93.9481 146.984 89.2899 146.808 83.464C146.632 77.9143 148.151 72.9674 151.366 68.623C155.182 63.5003 160.494 60.9389 167.299 60.9389C172.321 60.9389 176.314 62.9478 179.277 66.9657C181.939 70.5818 183.27 75.0642 183.27 80.4129C183.27 86.2388 181.713 91.2109 178.599 95.3292C175.109 99.9247 170.425 102.222 164.549 102.222ZM166.809 70.8831C163.72 70.858 161.285 72.2642 159.502 75.1018C157.995 77.4874 157.242 80.2748 157.242 83.464C157.242 86.4774 158.095 88.7877 159.803 90.3948C161.159 91.6755 162.741 92.3158 164.549 92.3158C166.734 92.3158 168.63 91.5751 170.237 90.0935C172.07 88.3608 173.049 86.0128 173.175 83.0497C173.501 74.9637 171.379 70.9082 166.809 70.8831Z" fill="#003366"/>
<path d="M224.36 72.4275C221.874 72.4275 220.38 71.3853 219.878 69.3011C218.873 69.1253 217.843 69.0374 216.789 69.0374C210.737 69.0374 207.711 69.8661 207.711 71.5234C207.711 72.5028 209.532 73.8212 213.173 75.4785C218.145 77.7637 221.51 79.5466 223.268 80.8273C226.909 83.464 228.729 86.4397 228.729 89.7545C228.729 94.0737 226.72 97.3507 222.703 99.5857C219.463 101.369 215.483 102.26 210.762 102.26C207.422 102.26 204.371 101.745 201.609 100.716C197.842 99.3094 195.959 97.2377 195.959 94.5006C195.959 91.9894 197.453 90.7338 200.441 90.7338C201.596 90.7338 203.266 91.0979 205.451 91.8262C207.636 92.5544 209.318 92.9185 210.498 92.9185C215.596 92.9185 218.157 91.889 218.182 89.8298C218.182 88.5491 216.412 87.1303 212.871 85.5734C207.698 83.2882 204.384 81.6434 202.927 80.639C199.386 78.1529 197.616 75.127 197.616 71.5611C197.616 66.5137 200.29 63.1111 205.639 61.3532C208.778 60.3237 213.549 59.8089 219.953 59.8089C222.464 59.8089 224.322 60.1353 225.528 60.7882C227.185 61.6671 228.014 63.2868 228.014 65.6473C228.014 70.1674 226.796 72.4275 224.36 72.4275ZM262.027 69.6777C261.5 69.6777 260.872 69.6652 260.144 69.6401C259.441 69.5898 258.826 69.5647 258.298 69.5647C257.269 69.5647 256.076 69.6652 254.72 69.8661C255.172 80.0112 255.398 86.6406 255.398 89.7545C255.398 90.0809 255.41 90.6962 255.436 91.6002C255.461 92.4791 255.473 93.1948 255.473 93.7472C255.473 99.5229 253.653 102.411 250.011 102.411C248.63 102.411 247.437 101.984 246.433 101.13C245.328 100.226 244.776 99.096 244.776 97.74C244.776 96.8359 244.813 95.4799 244.889 93.6719C244.964 91.8638 245.002 90.5078 245.002 89.6038C245.002 86.5653 244.776 80.0614 244.324 70.0921C242.767 70.0167 240.406 69.8158 237.242 69.4894C234.103 69.1378 232.534 67.5056 232.534 64.5926C232.534 63.1864 233.011 61.9936 233.965 61.0142C234.919 60.0349 236.15 59.5452 237.657 59.5452C238.586 59.5452 240.72 59.6959 244.06 59.9972C244.035 59.1936 243.972 57.8627 243.872 56.0045C243.771 54.3973 243.721 53.1543 243.721 52.2754C243.721 50.8691 244.236 49.7015 245.265 48.7723C246.295 47.8432 247.538 47.3786 248.994 47.3786C252.711 47.3786 254.569 50.505 254.569 56.7578L254.494 59.8465C256.051 59.6205 257.319 59.5075 258.298 59.5075C261.186 59.5075 263.157 59.6959 264.212 60.0725C266.221 60.7757 267.225 62.3075 267.225 64.668C267.225 66.0993 266.736 67.2921 265.756 68.2464C264.777 69.2006 263.534 69.6777 262.027 69.6777ZM287.34 102.222C282.694 102.222 278.701 100.628 275.362 97.4386C271.695 93.9481 269.774 89.2899 269.598 83.464C269.423 77.9143 270.942 72.9674 274.156 68.623C277.973 63.5003 283.284 60.9389 290.09 60.9389C295.112 60.9389 299.105 62.9478 302.068 66.9657C304.73 70.5818 306.061 75.0642 306.061 80.4129C306.061 86.2388 304.504 91.2109 301.39 95.3292C297.899 99.9247 293.216 102.222 287.34 102.222ZM289.6 70.8831C286.511 70.858 284.075 72.2642 282.292 75.1018C280.786 77.4874 280.032 80.2748 280.032 83.464C280.032 86.4774 280.886 88.7877 282.594 90.3948C283.95 91.6755 285.532 92.3158 287.34 92.3158C289.525 92.3158 291.42 91.5751 293.028 90.0935C294.861 88.3608 295.84 86.0128 295.966 83.0497C296.292 74.9637 294.17 70.9082 289.6 70.8831ZM343.992 72.8418C343.766 76.6839 342.02 78.6049 338.756 78.6049C335.592 78.6049 334.01 76.9727 334.01 73.7081L333.821 69.9037C328.171 70.8078 324.128 73.7081 321.693 78.6049L321.73 97.5516C321.73 98.983 321.241 100.163 320.261 101.092C319.282 102.047 318.039 102.524 316.532 102.524C314.975 102.524 313.77 102.021 312.916 101.017C312.112 100.113 311.711 98.9579 311.711 97.5516V72.8795C311.711 72.101 311.736 70.9459 311.786 69.4141C311.836 67.8571 311.861 66.6895 311.861 65.911C311.861 64.5047 312.276 63.3371 313.104 62.4079C313.958 61.4537 315.163 60.9766 316.72 60.9766C319.508 60.9766 321.165 62.4079 321.693 65.2706C326.137 61.9559 331.072 60.2986 336.496 60.2986C341.518 60.2986 344.029 63.6384 344.029 70.3181C344.029 71.5988 344.017 72.44 343.992 72.8418ZM368.475 101.733C362.474 101.733 357.564 100.301 353.747 97.4386C349.529 94.2746 347.419 89.8172 347.419 84.0667C347.419 77.7134 349.089 72.3396 352.429 67.945C356.146 63.0734 361.155 60.6376 367.458 60.6376C371.828 60.6376 375.456 61.3407 378.344 62.7469C382.136 64.6052 384.032 67.493 384.032 71.4104C384.032 74.1727 382.488 76.6211 379.399 78.7556C377.993 79.7349 375.168 81.1663 370.924 83.0497L358.23 88.6621C359.435 89.9679 360.892 90.9473 362.599 91.6002C364.307 92.2531 366.266 92.5795 368.475 92.5795C371.84 92.5795 374.691 91.889 377.026 90.5078C379.11 89.2773 380.78 88.6621 382.036 88.6621C384.647 88.6621 385.953 89.9302 385.953 92.4665C385.953 95.3292 383.856 97.6646 379.663 99.4727C376.147 100.979 372.418 101.733 368.475 101.733ZM367.458 69.7531C365.123 69.7531 363.127 70.5315 361.469 72.0885C359.812 73.6454 358.481 75.9807 357.477 79.0946C360.314 77.8641 363.139 76.6462 365.952 75.4408C369.342 73.909 372.041 72.4902 374.05 71.1844C372.368 70.2302 370.17 69.7531 367.458 69.7531Z" fill="#003366"/>
</svg>
