<svg width="512" height="156" viewBox="0 0 512 156" fill="none" xmlns="http://www.w3.org/2000/svg">
<path d="M58.4167 67.8492H44.4295C42.1902 67.8492 40.3687 65.919 40.3687 63.5462C40.3687 61.1734 42.1902 59.2433 44.4295 59.2433H64.2656C65.519 59.2433 66.5216 58.1809 66.5216 56.8528C66.5216 55.5247 65.519 54.4623 64.2656 54.4623H56.144C53.9047 54.4623 52.0832 52.5322 52.0832 50.1594C52.0832 47.7866 53.9047 45.8564 56.144 45.8564H67.0063C70.1814 45.8564 73.2562 47.0606 75.6961 49.2386L115.452 84.9369C116.371 85.7515 116.354 87.2389 115.435 88.0534L75.6627 122.884C73.2563 124.991 70.2315 126.142 67.1065 126.142H50.7463C48.507 126.142 46.6855 124.212 46.6855 121.839C46.6855 119.467 48.507 117.536 50.7463 117.536H63.8311C65.3184 117.536 66.5384 116.261 66.5384 114.668C66.5384 113.092 65.3352 111.799 63.8311 111.799H55.7095C53.7209 111.799 52.0999 110.082 52.0999 107.974C52.0999 105.867 53.7209 104.15 55.7095 104.15H68.3432C70.3318 104.15 71.9528 102.432 71.9528 100.325C71.9528 98.2175 70.3318 96.4999 68.3432 96.4999H64.7335C62.7449 96.4999 61.1239 94.7823 61.1239 92.6751C61.1239 90.5679 62.7449 88.8503 64.7335 88.8503H73.7576C75.2449 88.8503 76.4648 87.5753 76.4648 85.9816C76.4648 84.388 75.2616 83.113 73.7576 83.113H52.1166C50.128 83.113 48.507 81.3954 48.507 79.2882C48.507 77.181 50.128 75.4634 52.1166 75.4634H58.4334C60.4221 75.4634 62.043 73.7458 62.043 71.6386C62.0263 69.5668 60.4221 67.8492 58.4167 67.8492Z" fill="#003366"/>
<path d="M31.4567 68.158C33.9181 68.158 35.9135 66.161 35.9135 63.6976C35.9135 61.2343 33.9181 59.2373 31.4567 59.2373C28.9953 59.2373 27 61.2343 27 63.6976C27 66.161 28.9953 68.158 31.4567 68.158Z" fill="#003366"/>
<path d="M44.8254 112.763C47.2868 112.763 49.2821 110.766 49.2821 108.303C49.2821 105.84 47.2868 103.843 44.8254 103.843C42.364 103.843 40.3687 105.84 40.3687 108.303C40.3687 110.766 42.364 112.763 44.8254 112.763Z" fill="#003366"/>
<path d="M30.592 75.8135H41.368C43.3469 75.8135 44.9599 77.4278 44.9599 79.4084C44.9599 81.3889 43.3469 83.0033 41.368 83.0033H30.592C28.6131 83.0033 27 81.3889 27 79.4084C27 77.4278 28.5964 75.8135 30.592 75.8135Z" fill="#003366"/>
<path d="M39.5171 88.9961H53.9939C56.2727 88.9961 58.1301 90.6105 58.1301 92.591C58.1301 94.5715 56.2727 96.1859 53.9939 96.1859H39.5171C37.2383 96.1859 35.3809 94.5715 35.3809 92.591C35.3809 90.6105 37.2383 88.9961 39.5171 88.9961Z" fill="#003366"/>
<path d="M150.002 63.7238C148.394 63.7238 147.001 63.1839 145.82 62.1041C144.64 61.0243 144.05 59.7059 144.05 58.149C144.05 56.5921 144.64 55.2737 145.82 54.1939C147.001 53.1141 148.394 52.5742 150.002 52.5742C151.609 52.5742 152.99 53.1141 154.145 54.1939C155.325 55.2737 155.915 56.5921 155.915 58.149C155.915 59.7059 155.325 61.0243 154.145 62.1041C152.99 63.1839 151.609 63.7238 150.002 63.7238ZM153.203 91.334C153.203 92.7653 153.241 95.0631 153.316 98.2271C153.417 101.391 153.467 103.689 153.467 105.12C153.467 106.577 152.977 107.782 151.998 108.736C151.019 109.665 149.776 110.13 148.269 110.13C146.762 110.13 145.519 109.665 144.54 108.736C143.56 107.782 143.071 106.577 143.071 105.12C143.071 103.689 143.021 101.391 142.92 98.2271C142.845 95.0631 142.807 92.7653 142.807 91.334C142.807 89.0991 142.933 86.2991 143.184 82.9342C143.435 79.5692 143.56 76.7693 143.56 74.5343C143.56 73.0778 144.05 71.885 145.029 70.9559C146.009 70.0017 147.252 69.5246 148.759 69.5246C150.265 69.5246 151.508 70.0017 152.488 70.9559C153.467 71.885 153.957 73.0778 153.957 74.5343C153.957 76.7693 153.831 79.5692 153.58 82.9342C153.329 86.2991 153.203 89.0991 153.203 91.334ZM180.437 111.222C178.277 111.222 176.005 110.971 173.619 110.469L173.581 125.837C173.581 127.294 173.092 128.499 172.112 129.453C171.133 130.408 169.89 130.885 168.383 130.885C166.877 130.885 165.634 130.408 164.654 129.453C163.675 128.499 163.185 127.294 163.185 125.837C163.185 124.657 163.21 119.974 163.26 111.787C163.311 105.71 163.311 100.751 163.26 96.9088C163.185 91.4847 163.009 86.8139 162.733 82.8965C162.356 77.4975 162.168 75.024 162.168 75.476C162.168 73.3917 162.633 71.6088 163.562 70.1272C164.642 68.4448 166.098 67.6035 167.931 67.6035C169.337 67.6035 170.518 68.0806 171.472 69.0349C172.426 69.9891 172.903 71.1317 172.903 72.4626L172.866 72.8393C174.548 71.885 176.231 71.1819 177.913 70.7299C179.621 70.2528 181.328 70.0142 183.036 70.0142C188.812 70.0142 193.03 72.4626 195.692 77.3594C197.676 81.0508 198.668 85.8345 198.668 91.7107C198.668 97.2101 197.098 101.768 193.959 105.384C190.594 109.276 186.087 111.222 180.437 111.222ZM183.036 80.0714C181.454 80.0714 179.847 80.4481 178.214 81.2015C176.582 81.9297 174.937 83.0346 173.28 84.5162C173.581 89.6892 173.732 94.8747 173.732 100.073C175.967 100.801 178.202 101.165 180.437 101.165C183.023 101.165 185.007 100.249 186.388 98.4155C187.644 96.7581 188.272 94.5232 188.272 91.7107C188.272 88.3206 188.121 85.9727 187.82 84.6669C187.091 81.6032 185.497 80.0714 183.036 80.0714ZM221.72 111.222C219.561 111.222 217.288 110.971 214.902 110.469L214.865 125.837C214.865 127.294 214.375 128.499 213.396 129.453C212.416 130.408 211.173 130.885 209.667 130.885C208.16 130.885 206.917 130.408 205.938 129.453C204.958 128.499 204.469 127.294 204.469 125.837C204.469 124.657 204.494 119.974 204.544 111.787C204.594 105.71 204.594 100.751 204.544 96.9088C204.469 91.4847 204.293 86.8139 204.017 82.8965C203.64 77.4975 203.452 75.024 203.452 75.476C203.452 73.3917 203.916 71.6088 204.845 70.1272C205.925 68.4448 207.382 67.6035 209.215 67.6035C210.621 67.6035 211.801 68.0806 212.755 69.0349C213.71 69.9891 214.187 71.1317 214.187 72.4626L214.149 72.8393C215.832 71.885 217.514 71.1819 219.197 70.7299C220.904 70.2528 222.612 70.0142 224.319 70.0142C230.095 70.0142 234.314 72.4626 236.976 77.3594C238.959 81.0508 239.951 85.8345 239.951 91.7107C239.951 97.2101 238.382 101.768 235.243 105.384C231.878 109.276 227.37 111.222 221.72 111.222ZM224.319 80.0714C222.737 80.0714 221.13 80.4481 219.498 81.2015C217.866 81.9297 216.221 83.0346 214.563 84.5162C214.865 89.6892 215.015 94.8747 215.015 100.073C217.25 100.801 219.485 101.165 221.72 101.165C224.307 101.165 226.291 100.249 227.672 98.4155C228.927 96.7581 229.555 94.5232 229.555 91.7107C229.555 88.3206 229.404 85.9727 229.103 84.6669C228.375 81.6032 226.78 80.0714 224.319 80.0714ZM261.12 111.222C256.475 111.222 252.482 109.628 249.142 106.439C245.476 102.948 243.555 98.2899 243.379 92.464C243.203 86.9143 244.723 81.9674 247.937 77.623C251.754 72.5003 257.065 69.9389 263.87 69.9389C268.892 69.9389 272.885 71.9478 275.848 75.9657C278.51 79.5818 279.841 84.0642 279.841 89.4129C279.841 95.2388 278.284 100.211 275.17 104.329C271.68 108.925 266.997 111.222 261.12 111.222ZM263.38 79.8831C260.292 79.858 257.856 81.2642 256.073 84.1018C254.566 86.4874 253.813 89.2748 253.813 92.464C253.813 95.4774 254.667 97.7877 256.374 99.3948C257.73 100.676 259.312 101.316 261.12 101.316C263.305 101.316 265.201 100.575 266.808 99.0935C268.641 97.3608 269.621 95.0128 269.746 92.0497C270.073 83.9637 267.951 79.9082 263.38 79.8831Z" fill="#003366"/>
<path d="M320.931 81.4275C318.445 81.4275 316.951 80.3853 316.449 78.3011C315.444 78.1253 314.415 78.0374 313.36 78.0374C307.308 78.0374 304.282 78.8661 304.282 80.5234C304.282 81.5028 306.103 82.8212 309.744 84.4785C314.716 86.7637 318.081 88.5466 319.839 89.8273C323.48 92.464 325.301 95.4397 325.301 98.7545C325.301 103.074 323.292 106.351 319.274 108.586C316.034 110.369 312.054 111.26 307.333 111.26C303.993 111.26 300.942 110.745 298.18 109.716C294.413 108.309 292.53 106.238 292.53 103.501C292.53 100.989 294.024 99.7338 297.012 99.7338C298.168 99.7338 299.837 100.098 302.022 100.826C304.207 101.554 305.889 101.919 307.07 101.919C312.167 101.919 314.729 100.889 314.754 98.8298C314.754 97.5491 312.983 96.1303 309.443 94.5734C304.27 92.2882 300.955 90.6434 299.498 89.639C295.958 87.1529 294.187 84.127 294.187 80.5611C294.187 75.5137 296.862 72.1111 302.211 70.3532C305.349 69.3237 310.121 68.8089 316.524 68.8089C319.035 68.8089 320.894 69.1353 322.099 69.7882C323.756 70.6671 324.585 72.2868 324.585 74.6473C324.585 79.1674 323.367 81.4275 320.931 81.4275ZM358.599 78.6777C358.071 78.6777 357.443 78.6652 356.715 78.6401C356.012 78.5898 355.397 78.5647 354.87 78.5647C353.84 78.5647 352.647 78.6652 351.291 78.8661C351.743 89.0112 351.969 95.6406 351.969 98.7545C351.969 99.0809 351.982 99.6962 352.007 100.6C352.032 101.479 352.045 102.195 352.045 102.747C352.045 108.523 350.224 111.411 346.583 111.411C345.202 111.411 344.009 110.984 343.004 110.13C341.899 109.226 341.347 108.096 341.347 106.74C341.347 105.836 341.385 104.48 341.46 102.672C341.535 100.864 341.573 99.5078 341.573 98.6038C341.573 95.5653 341.347 89.0614 340.895 79.0921C339.338 79.0167 336.978 78.8158 333.813 78.4894C330.675 78.1378 329.105 76.5056 329.105 73.5926C329.105 72.1864 329.582 70.9936 330.536 70.0142C331.491 69.0349 332.721 68.5452 334.228 68.5452C335.157 68.5452 337.291 68.6959 340.631 68.9972C340.606 68.1936 340.543 66.8627 340.443 65.0045C340.342 63.3973 340.292 62.1543 340.292 61.2754C340.292 59.8691 340.807 58.7015 341.837 57.7723C342.866 56.8432 344.109 56.3786 345.566 56.3786C349.282 56.3786 351.14 59.505 351.14 65.7578L351.065 68.8465C352.622 68.6205 353.89 68.5075 354.87 68.5075C357.757 68.5075 359.729 68.6959 360.783 69.0725C362.792 69.7757 363.797 71.3075 363.797 73.668C363.797 75.0993 363.307 76.2921 362.328 77.2464C361.348 78.2006 360.105 78.6777 358.599 78.6777ZM383.911 111.222C379.265 111.222 375.273 109.628 371.933 106.439C368.267 102.948 366.346 98.2899 366.17 92.464C365.994 86.9143 367.513 81.9674 370.728 77.623C374.544 72.5003 379.856 69.9389 386.661 69.9389C391.683 69.9389 395.676 71.9478 398.639 75.9657C401.301 79.5818 402.632 84.0642 402.632 89.4129C402.632 95.2388 401.075 100.211 397.961 104.329C394.471 108.925 389.787 111.222 383.911 111.222ZM386.171 79.8831C383.082 79.858 380.647 81.2642 378.864 84.1018C377.357 86.4874 376.604 89.2748 376.604 92.464C376.604 95.4774 377.457 97.7877 379.165 99.3948C380.521 100.676 382.103 101.316 383.911 101.316C386.096 101.316 387.992 100.575 389.599 99.0935C391.432 97.3608 392.411 95.0128 392.537 92.0497C392.863 83.9637 390.741 79.9082 386.171 79.8831ZM440.563 81.8418C440.337 85.6839 438.592 87.6049 435.327 87.6049C432.163 87.6049 430.581 85.9727 430.581 82.7081L430.393 78.9037C424.743 79.8078 420.7 82.7081 418.264 87.6049L418.301 106.552C418.301 107.983 417.812 109.163 416.832 110.092C415.853 111.047 414.61 111.524 413.103 111.524C411.546 111.524 410.341 111.021 409.487 110.017C408.684 109.113 408.282 107.958 408.282 106.552V81.8795C408.282 81.101 408.307 79.9459 408.357 78.4141C408.408 76.8571 408.433 75.6895 408.433 74.911C408.433 73.5047 408.847 72.3371 409.676 71.4079C410.529 70.4537 411.735 69.9766 413.292 69.9766C416.079 69.9766 417.736 71.4079 418.264 74.2706C422.709 70.9559 427.643 69.2986 433.067 69.2986C438.089 69.2986 440.601 72.6384 440.601 79.3181C440.601 80.5988 440.588 81.44 440.563 81.8418ZM465.047 110.733C459.045 110.733 454.136 109.301 450.319 106.439C446.1 103.275 443.991 98.8172 443.991 93.0667C443.991 86.7134 445.661 81.3396 449 76.945C452.717 72.0734 457.727 69.6376 464.03 69.6376C468.399 69.6376 472.028 70.3407 474.916 71.7469C478.707 73.6052 480.603 76.493 480.603 80.4104C480.603 83.1727 479.059 85.6211 475.97 87.7556C474.564 88.7349 471.739 90.1663 467.495 92.0497L454.801 97.6621C456.007 98.9679 457.463 99.9473 459.171 100.6C460.878 101.253 462.837 101.58 465.047 101.58C468.412 101.58 471.262 100.889 473.597 99.5078C475.681 98.2773 477.351 97.6621 478.607 97.6621C481.219 97.6621 482.524 98.9302 482.524 101.467C482.524 104.329 480.428 106.665 476.234 108.473C472.718 109.979 468.989 110.733 465.047 110.733ZM464.03 78.7531C461.694 78.7531 459.698 79.5315 458.041 81.0885C456.383 82.6454 455.052 84.9807 454.048 88.0946C456.885 86.8641 459.711 85.6462 462.523 84.4408C465.913 82.909 468.613 81.4902 470.622 80.1844C468.939 79.2302 466.742 78.7531 464.03 78.7531Z" fill="#003366"/>
</svg>
