<svg xmlns="http://www.w3.org/2000/svg" id="el_q9TJh6D9M" version="1.1" viewBox="0 0 100 100">
    <style>@-webkit-keyframes el_R9UW4-P7ah_cFTtL09b-_Animation{0%{-webkit-transform:translate(50.609373807907104px,50.12313608825207px) rotate(0deg) translate(-50.609373807907104px,-50.12313608825207px);transform:translate(50.609373807907104px,50.12313608825207px) rotate(0deg) translate(-50.609373807907104px,-50.12313608825207px)}to{-webkit-transform:translate(50.609373807907104px,50.12313608825207px) rotate(360deg) translate(-50.609373807907104px,-50.12313608825207px);transform:translate(50.609373807907104px,50.12313608825207px) rotate(360deg) translate(-50.609373807907104px,-50.12313608825207px)}}@keyframes el_R9UW4-P7ah_cFTtL09b-_Animation{0%{-webkit-transform:translate(50.609373807907104px,50.12313608825207px) rotate(0deg) translate(-50.609373807907104px,-50.12313608825207px);transform:translate(50.609373807907104px,50.12313608825207px) rotate(0deg) translate(-50.609373807907104px,-50.12313608825207px)}to{-webkit-transform:translate(50.609373807907104px,50.12313608825207px) rotate(360deg) translate(-50.609373807907104px,-50.12313608825207px);transform:translate(50.609373807907104px,50.12313608825207px) rotate(360deg) translate(-50.609373807907104px,-50.12313608825207px)}}.st1{fill-rule:evenodd;clip-rule:evenodd;fill:#001a6c}#el_q9TJh6D9M *{-webkit-animation-duration:3s;animation-duration:3s;-webkit-animation-iteration-count:infinite;animation-iteration-count:infinite;-webkit-animation-timing-function:cubic-bezier(0,0,1,1);animation-timing-function:cubic-bezier(0,0,1,1)}.st0{fill:#1F3463;transform:scale(0.1);-ms-transform:scale(0.1);-webkit-transform:scale(0.1);-moz-transform:scale(0.1);-o-transform:scale(0.1);transform:}</style>

    <g fill="none" fill-rule="evenodd">
        <g style="-webkit-animation-name:el_R9UW4-P7ah_cFTtL09b-_Animation;animation-name:el_R9UW4-P7ah_cFTtL09b-_Animation">
            <g fill="#bcbcbc" style="-webkit-transform:translate(12px,6px)" fill-rule="nonzero" data-animator-group="true" data-animator-type="1" transform="translate(12 6)">
                <path id="el_j8B3lfKba6" d="M2.042 19.935C3.077 18.031 14.072.345 38.463.165c25.592-.179 36.891 20.088 37.27 20.957 1.683 3.883.966 8.87-2.6 10.65-4.09 2.042-8.367.814-10.65-2.414-4.712-6.622-5.23-14.969-17.35-19.915C18.867-1.297.967 21.86 2.022 19.928l.02.007zm73.146 48.397c-1.02 1.89-12.016 19.59-36.407 19.749-25.592.172-36.905-20.073-37.277-20.97-1.71-3.863-.987-8.843 2.566-10.623 4.097-2.042 8.38-.807 10.657 2.414 4.719 6.636 5.229 14.969 17.356 19.922 26.281 10.72 44.188-12.417 43.112-10.485l-.007-.007z"/>
            </g>
        </g>
        <g transform="translate(35,35)">
            <path class="st0" d="M122.3,83.5H66c-9,0-16.3-7.3-16.3-16.3S57,50.8,66,50.8h79.8c5,0,9.1-4,9.1-9.1s-4-9.1-9.1-9.1h-32.7
                c-9,0-16.3-7.3-16.3-16.3S104.1,0,113.1,0h43.7c12.8,0,25.1,4.6,35,12.8l159.9,135.5c3.7,3.1,3.6,8.7-0.1,11.8l-160,132.2
                c-9.7,8-21.8,12.4-34.4,12.4H91.4c-9,0-16.3-7.3-16.3-16.3c0-9,7.3-16.3,16.3-16.3H144c6,0,10.9-4.8,10.9-10.9
                c0-6-4.8-10.9-10.9-10.9h-32.7c-8,0-14.5-6.5-14.5-14.5c0-8,6.5-14.5,14.5-14.5h50.8c8,0,14.5-6.5,14.5-14.5c0-8-6.5-14.5-14.5-14.5
                h-14.5c-8,0-14.5-6.5-14.5-14.5c0-8,6.5-14.5,14.5-14.5H184c6,0,10.9-4.8,10.9-10.9c0-6-4.8-10.9-10.9-10.9h-87
                c-8,0-14.5-6.5-14.5-14.5s6.5-14.5,14.5-14.5h25.4c8,0,14.5-6.5,14.5-14.5C136.8,90,130.3,83.5,122.3,83.5z"/>
            <circle class="st0" cx="22.5" cy="66.1" r="16.3"/>
            <circle class="st0" cx="66.1" cy="234" r="16.3"/>
            <path class="st0" d="M14.5,112h43.6c8,0,14.5,6.5,14.5,14.5l0,0c0,8-6.5,14.5-14.5,14.5H14.5c-8,0-14.5-6.5-14.5-14.5l0,0
                C0,118.5,6.5,112,14.5,112z"/>
            <path class="st0" d="M57,163.3h50.8c8,0,14.5,6.5,14.5,14.5l0,0c0,8-6.5,14.5-14.5,14.5H57c-8,0-14.5-6.5-14.5-14.5l0,0
                C42.5,169.8,49,163.3,57,163.3z"/>
        </g>
    </g>
</svg>