<svg width="147" height="42" viewBox="0 0 147 42" fill="none" xmlns="http://www.w3.org/2000/svg">
<path d="M4.07135 5.91415C3.22409 5.91415 2.48937 5.62776 1.86716 5.055C1.24496 4.48223 0.933862 3.78292 0.933862 2.95707C0.933862 2.13122 1.24496 1.43192 1.86716 0.85915C2.48937 0.286383 3.22409 0 4.07135 0C4.9186 0 5.64671 0.286383 6.25567 0.85915C6.87787 1.43192 7.18897 2.13122 7.18897 2.95707C7.18897 3.78292 6.87787 4.48223 6.25567 5.055C5.64671 5.62776 4.9186 5.91415 4.07135 5.91415ZM5.75923 20.5596C5.75923 21.3189 5.77909 22.5377 5.8188 24.216C5.87176 25.8944 5.89823 27.1132 5.89823 27.8724C5.89823 28.645 5.64009 29.2843 5.12379 29.7905C4.6075 30.2834 3.9522 30.5298 3.1579 30.5298C2.3636 30.5298 1.7083 30.2834 1.19201 29.7905C0.675714 29.2843 0.417567 28.645 0.417567 27.8724C0.417567 27.1132 0.39109 25.8944 0.338137 24.216C0.298422 22.5377 0.278564 21.3189 0.278564 20.5596C0.278564 19.3742 0.344756 17.889 0.477139 16.1041C0.609523 14.3192 0.675714 12.834 0.675714 11.6485C0.675714 10.8759 0.933862 10.2432 1.45016 9.75035C1.96645 9.24418 2.62175 8.9911 3.41605 8.9911C4.21035 8.9911 4.86565 9.24418 5.38194 9.75035C5.89823 10.2432 6.15638 10.8759 6.15638 11.6485C6.15638 12.834 6.09019 14.3192 5.95781 16.1041C5.82542 17.889 5.75923 19.3742 5.75923 20.5596Z" fill="white"/>
<path d="M20.1162 31.1092C18.9777 31.1092 17.7796 30.976 16.522 30.7096L16.5021 38.8615C16.5021 39.6341 16.244 40.2735 15.7277 40.7796C15.2114 41.2858 14.5561 41.5389 13.7618 41.5389C12.9675 41.5389 12.3122 41.2858 11.7959 40.7796C11.2796 40.2735 11.0215 39.6341 11.0215 38.8615C11.0215 38.2355 11.0347 35.7513 11.0612 31.4089C11.0877 28.1854 11.0877 25.5547 11.0612 23.5167C11.0215 20.6396 10.9288 18.162 10.7832 16.0841C10.5846 13.2202 10.4853 11.9082 10.4853 12.148C10.4853 11.0424 10.7302 10.0967 11.22 9.31078C11.7893 8.41833 12.5571 7.97211 13.5235 7.97211C14.2649 7.97211 14.8871 8.22519 15.3901 8.73136C15.8932 9.23752 16.1447 9.84359 16.1447 10.5496L16.1248 10.7494C17.0118 10.2432 17.8988 9.87023 18.7857 9.63047C19.686 9.37738 20.5862 9.25084 21.4864 9.25084C24.5312 9.25084 26.7552 10.5496 28.1585 13.147C29.2043 15.105 29.7272 17.6425 29.7272 20.7595C29.7272 23.6766 28.8998 26.0942 27.245 28.0123C25.4711 30.0769 23.0948 31.1092 20.1162 31.1092ZM21.4864 14.5856C20.6524 14.5856 19.8051 14.7854 18.9446 15.185C18.0841 15.5713 17.217 16.1573 16.3433 16.9432C16.5021 19.6872 16.5816 22.4378 16.5816 25.1951C17.7598 25.5813 18.938 25.7745 20.1162 25.7745C21.4797 25.7745 22.5256 25.2883 23.2537 24.3159C23.9156 23.4368 24.2466 22.2513 24.2466 20.7595C24.2466 18.9612 24.1671 17.7158 24.0083 17.0231C23.6244 15.3981 22.7837 14.5856 21.4864 14.5856Z" fill="white"/>
<path d="M41.88 31.1092C40.7415 31.1092 39.5434 30.976 38.2858 30.7096L38.2659 38.8615C38.2659 39.6341 38.0078 40.2735 37.4915 40.7796C36.9752 41.2858 36.3199 41.5389 35.5256 41.5389C34.7313 41.5389 34.076 41.2858 33.5597 40.7796C33.0434 40.2735 32.7853 39.6341 32.7853 38.8615C32.7853 38.2355 32.7985 35.7513 32.825 31.4089C32.8515 28.1854 32.8515 25.5547 32.825 23.5167C32.7853 20.6396 32.6926 18.162 32.547 16.0841C32.3484 13.2202 32.2491 11.9082 32.2491 12.148C32.2491 11.0424 32.494 10.0967 32.9839 9.31078C33.5531 8.41833 34.3209 7.97211 35.2873 7.97211C36.0287 7.97211 36.6509 8.22519 37.1539 8.73136C37.657 9.23752 37.9085 9.84359 37.9085 10.5496L37.8887 10.7494C38.7756 10.2432 39.6626 9.87023 40.5496 9.63047C41.4498 9.37738 42.35 9.25084 43.2502 9.25084C46.295 9.25084 48.519 10.5496 49.9223 13.147C50.9681 15.105 51.491 17.6425 51.491 20.7595C51.491 23.6766 50.6636 26.0942 49.0089 28.0123C47.2349 30.0769 44.8586 31.1092 41.88 31.1092ZM43.2502 14.5856C42.4162 14.5856 41.5689 14.7854 40.7084 15.185C39.8479 15.5713 38.9808 16.1573 38.1071 16.9432C38.2659 19.6872 38.3454 22.4378 38.3454 25.1951C39.5236 25.5813 40.7018 25.7745 41.88 25.7745C43.2436 25.7745 44.2894 25.2883 45.0175 24.3159C45.6794 23.4368 46.0104 22.2513 46.0104 20.7595C46.0104 18.9612 45.9309 17.7158 45.7721 17.0231C45.3882 15.3981 44.5475 14.5856 43.2502 14.5856Z" fill="white"/>
<path d="M62.6509 31.1092C60.2019 31.1092 58.097 30.2634 56.3363 28.5717C54.4035 26.7202 53.3907 24.2493 53.2981 21.1591C53.2054 18.2153 54.0063 15.5912 55.7008 13.2868C57.7131 10.5695 60.513 9.21088 64.1005 9.21088C66.7482 9.21088 68.8531 10.2765 70.4152 12.4077C71.8185 14.3258 72.5201 16.7035 72.5201 19.5407C72.5201 22.6309 71.6993 25.2683 70.0578 27.4528C68.2177 29.8904 65.7487 31.1092 62.6509 31.1092ZM63.8424 14.4857C62.2141 14.4723 60.93 15.2183 59.99 16.7234C59.1957 17.9889 58.7986 19.4674 58.7986 21.1591C58.7986 22.7575 59.2487 23.9829 60.1489 24.8354C60.8638 25.5147 61.6978 25.8544 62.6509 25.8544C63.8027 25.8544 64.8022 25.4615 65.6494 24.6756C66.6158 23.7565 67.1321 22.511 67.1983 20.9393C67.3704 16.6502 66.2518 14.499 63.8424 14.4857Z" fill="white"/>
<path d="M91.6317 30.8768C90.491 30.8768 89.2907 30.7407 88.0307 30.4683L88.0108 38.8019C88.0108 39.5917 87.7521 40.2453 87.2349 40.7627C86.7176 41.2802 86.0611 41.5389 85.2652 41.5389C84.4694 41.5389 83.8129 41.2802 83.2956 40.7627C82.7784 40.2453 82.5197 39.5917 82.5197 38.8019C82.5197 38.1619 82.533 35.6223 82.5595 31.1832C82.586 27.8879 82.586 25.1986 82.5595 23.1152C82.5197 20.1739 82.4269 17.6412 82.281 15.5169C82.082 12.5893 81.9825 11.248 81.9825 11.4931C81.9825 10.3629 82.2279 9.39609 82.7187 8.59269C83.289 7.68035 84.0583 7.22418 85.0265 7.22418C85.7693 7.22418 86.3926 7.4829 86.8966 8.00035C87.4007 8.51779 87.6527 9.13736 87.6527 9.85906L87.6328 10.0633C88.5214 9.54587 89.4101 9.1646 90.2987 8.91949C91.2006 8.66077 92.1025 8.53141 93.0045 8.53141C96.0551 8.53141 98.2833 9.85906 99.6892 12.5144C100.737 14.5161 101.261 17.1101 101.261 20.2965C101.261 23.2786 100.432 25.7501 98.7741 27.7109C96.9968 29.8215 94.616 30.8768 91.6317 30.8768ZM93.0045 13.985C92.1689 13.985 91.32 14.1893 90.4579 14.5978C89.5958 14.9927 88.727 15.5918 87.8516 16.3952C88.0108 19.2003 88.0904 22.0122 88.0904 24.8309C89.2708 25.2258 90.4513 25.4232 91.6317 25.4232C92.9978 25.4232 94.0456 24.9262 94.7751 23.9322C95.4383 23.0335 95.7699 21.8216 95.7699 20.2965C95.7699 18.4582 95.6903 17.185 95.5311 16.4769C95.1465 14.8156 94.3043 13.985 93.0045 13.985Z" fill="white"/>
<path d="M121.415 31.0198C120.805 31.0198 119.836 30.339 118.51 28.9773C117.29 29.5764 116.215 30.0258 115.287 30.3253C114.359 30.6385 113.569 30.7951 112.92 30.7951C109.723 30.7951 107.322 29.9168 105.717 28.1603C104.126 26.4037 103.33 23.7756 103.33 20.276C103.33 16.9943 104.51 14.1893 106.871 11.8608C109.232 9.51864 112.057 8.34758 115.347 8.34758C116.607 8.34758 118.066 8.71524 119.724 9.45055C121.726 10.3357 122.728 11.3637 122.728 12.5348C122.728 13.025 122.575 13.4539 122.27 13.8216C122.138 14.3663 122.032 15.0539 121.952 15.8846C121.886 16.7016 121.852 17.6616 121.852 18.7646C121.852 21.3654 122.032 23.2377 122.39 24.3815C122.429 24.5041 122.734 25.2122 123.305 26.5058C123.822 27.6768 124.081 28.3441 124.081 28.5075C124.081 29.2292 123.809 29.8283 123.265 30.3049C122.734 30.7815 122.118 31.0198 121.415 31.0198ZM116.481 17.008C116.481 16.5722 116.507 16.0752 116.56 15.5169C116.627 14.945 116.719 14.3118 116.839 13.6173C116.574 13.4812 116.335 13.3859 116.123 13.3314C115.924 13.2633 115.751 13.2293 115.605 13.2293C113.802 13.2293 112.223 13.9578 110.87 15.4148C109.517 16.8582 108.841 18.5331 108.841 20.4394C108.841 22.2641 109.159 23.6394 109.796 24.5654C110.433 25.4777 111.388 25.9339 112.661 25.9339C113.483 25.9339 114.259 25.7977 114.989 25.5254C115.731 25.2394 116.428 24.8241 117.078 24.2794C116.68 21.0386 116.481 18.6148 116.481 17.008Z" fill="white"/>
<path d="M146.662 12.4122C145.216 15.5033 142.928 20.3577 139.798 26.9756C138.1 30.5296 136.807 33.4777 135.918 35.8198C135.64 36.664 135.202 37.9168 134.605 39.5781C134.128 40.8581 133.279 41.4981 132.059 41.4981C131.303 41.4981 130.639 41.2461 130.069 40.7423C129.499 40.2385 129.214 39.6053 129.214 38.8428C129.214 37.5764 130.62 33.8249 133.431 27.5883C131.972 24.6335 129.658 20.2828 126.488 14.5365C126.17 14.019 125.845 13.4948 125.513 12.9637C125.155 12.3373 124.976 11.7654 124.976 11.248C124.976 10.5127 125.261 9.86587 125.831 9.30758C126.402 8.74928 127.058 8.47013 127.801 8.47013C128.676 8.47013 129.36 8.80375 129.85 9.47098C131.734 12.0446 133.929 15.9186 136.436 21.0931C137.855 17.8658 138.717 15.9186 139.022 15.2514C139.964 13.2225 140.885 11.4386 141.787 9.89991C142.358 8.91949 143.14 8.42928 144.135 8.42928C144.878 8.42928 145.541 8.688 146.125 9.20545C146.708 9.72289 147 10.3561 147 11.105C147 11.4999 146.887 11.9356 146.662 12.4122Z" fill="white"/>
</svg>
