<svg width="114" height="34" viewBox="0 0 114 34" fill="none" xmlns="http://www.w3.org/2000/svg">
<path d="M3.78128 4.91686C3.11306 4.91686 2.53339 4.69035 2.04268 4.23745C1.55183 3.78442 1.30647 3.23126 1.30647 2.57813C1.30647 1.92499 1.55183 1.37184 2.04268 0.918807C2.53339 0.465774 3.11306 0.239258 3.78128 0.239258C4.44963 0.239258 5.02392 0.465774 5.50429 0.918807C5.99514 1.37184 6.2405 1.92499 6.2405 2.57813C6.2405 3.23126 5.99514 3.78442 5.50429 4.23745C5.02392 4.69035 4.44963 4.91686 3.78128 4.91686ZM5.11274 16.5003C5.11274 17.1008 5.12833 18.0648 5.15977 19.3922C5.20142 20.7196 5.22239 21.6836 5.22239 22.2841C5.22239 22.8952 5.01868 23.4008 4.61154 23.8011C4.20427 24.1909 3.68735 24.3859 3.06079 24.3859C2.43423 24.3859 1.91731 24.1909 1.51004 23.8011C1.10276 23.4008 0.899198 22.8952 0.899198 22.2841C0.899198 21.6836 0.878371 20.7196 0.836581 19.3922C0.805274 18.0648 0.789551 17.1008 0.789551 16.5003C0.789551 15.5627 0.84182 14.388 0.946224 12.9763C1.05063 11.5647 1.10276 10.3899 1.10276 9.4523C1.10276 8.84121 1.30647 8.34088 1.71374 7.95105C2.12101 7.5507 2.63793 7.3506 3.26436 7.3506C3.89092 7.3506 4.40784 7.5507 4.81511 7.95105C5.22238 8.34088 5.42595 8.84121 5.42595 9.4523C5.42595 10.3899 5.37382 11.5647 5.26942 12.9763C5.16487 14.388 5.11274 15.5627 5.11274 16.5003Z" fill="#003366"/>
<path d="M16.4377 24.8443C15.5397 24.8443 14.5946 24.7391 13.6026 24.5283L13.5869 30.9759C13.5869 31.5869 13.3833 32.0926 12.976 32.4929C12.5688 32.8933 12.0518 33.0934 11.4253 33.0934C10.7987 33.0934 10.2819 32.8933 9.87466 32.4929C9.46739 32.0926 9.26368 31.5869 9.26368 30.9759C9.26368 30.4807 9.27416 28.5159 9.29512 25.0815C9.31595 22.5319 9.31595 20.4512 9.29512 18.8394C9.26368 16.5638 9.19058 14.6042 9.0757 12.9608C8.91916 10.6956 8.84082 9.65807 8.84082 9.84766C8.84082 8.97327 9.03405 8.22526 9.42036 7.60366C9.86942 6.89783 10.475 6.54492 11.2373 6.54492C11.8221 6.54492 12.3129 6.74503 12.7097 7.14537C13.1065 7.54572 13.305 8.02502 13.305 8.58343L13.2892 8.74149C13.9889 8.34115 14.6886 8.04618 15.3882 7.85645C16.0982 7.65635 16.8084 7.55622 17.5185 7.55622C19.9202 7.55622 21.6746 8.58343 22.7815 10.6377C23.6064 12.1864 24.0189 14.1934 24.0189 16.6586C24.0189 18.9658 23.3663 20.878 22.0609 22.395C20.6617 24.0279 18.7872 24.8443 16.4377 24.8443ZM17.5185 11.7755C16.8606 11.7755 16.1923 11.9336 15.5135 12.2496C14.8348 12.5552 14.1508 13.0188 13.4616 13.6402C13.5869 15.8105 13.6495 17.9861 13.6495 20.1667C14.5789 20.4724 15.5084 20.625 16.4377 20.625C17.5133 20.625 18.3382 20.2406 18.9126 19.4714C19.4346 18.7761 19.6957 17.8385 19.6957 16.6586C19.6957 15.2363 19.6331 14.2513 19.5077 13.7036C19.205 12.4182 18.5419 11.7755 17.5185 11.7755Z" fill="#003366"/>
<path d="M33.6051 24.8443C32.707 24.8443 31.762 24.7391 30.7699 24.5283L30.7544 30.9759C30.7544 31.5869 30.5506 32.0926 30.1434 32.4929C29.7362 32.8933 29.2193 33.0934 28.5928 33.0934C27.9662 33.0934 27.4493 32.8933 27.042 32.4929C26.6347 32.0926 26.4312 31.5869 26.4312 30.9759C26.4312 30.4807 26.4416 28.5159 26.4625 25.0815C26.4834 22.5319 26.4834 20.4512 26.4625 18.8394C26.4312 16.5638 26.3581 14.6042 26.2432 12.9608C26.0865 10.6956 26.0083 9.65807 26.0083 9.84766C26.0083 8.97327 26.2014 8.22526 26.5878 7.60366C27.0368 6.89783 27.6425 6.54492 28.4048 6.54492C28.9895 6.54492 29.4804 6.74503 29.8772 7.14537C30.274 7.54572 30.4723 8.02502 30.4723 8.58343L30.4567 8.74149C31.1564 8.34115 31.856 8.04618 32.5556 7.85645C33.2657 7.65635 33.9759 7.55622 34.6859 7.55622C37.0877 7.55622 38.842 8.58343 39.9488 10.6377C40.7739 12.1864 41.1864 14.1934 41.1864 16.6586C41.1864 18.9658 40.5336 20.878 39.2284 22.395C37.829 24.0279 35.9547 24.8443 33.6051 24.8443ZM34.6859 11.7755C34.028 11.7755 33.3598 11.9336 32.6809 12.2496C32.0022 12.5552 31.3182 13.0188 30.629 13.6402C30.7544 15.8105 30.817 17.9861 30.817 20.1667C31.7464 20.4724 32.6757 20.625 33.6051 20.625C34.6806 20.625 35.5057 20.2406 36.0799 19.4714C36.6021 18.7761 36.8632 17.8385 36.8632 16.6586C36.8632 15.2363 36.8004 14.2513 36.6752 13.7036C36.3723 12.4182 35.7092 11.7755 34.6859 11.7755Z" fill="#003366"/>
<path d="M49.9892 24.8445C48.0574 24.8445 46.3969 24.1756 45.0081 22.8377C43.4836 21.3732 42.6847 19.4191 42.6116 16.9748C42.5385 14.6466 43.1702 12.5712 44.5069 10.7485C46.0941 8.5994 48.3027 7.5249 51.1327 7.5249C53.221 7.5249 54.8814 8.36763 56.1136 10.0532C57.2205 11.5704 57.774 13.4508 57.774 15.6948C57.774 18.1389 57.1266 20.2249 55.8317 21.9527C54.3802 23.8807 52.4327 24.8445 49.9892 24.8445ZM50.9289 11.6968C49.6445 11.6863 48.6316 12.2762 47.8902 13.4666C47.2636 14.4675 46.9504 15.6369 46.9504 16.9748C46.9504 18.2391 47.3054 19.2083 48.0156 19.8826C48.5794 20.4199 49.2372 20.6886 49.9892 20.6886C50.8976 20.6886 51.686 20.3777 52.3543 19.7561C53.1166 19.0292 53.5239 18.0442 53.5762 16.801C53.7119 13.4087 52.8295 11.7073 50.9289 11.6968Z" fill="#003366"/>
<path d="M70.3255 24.6613C69.4262 24.6613 68.4801 24.5536 67.4856 24.3383L67.4699 30.9294C67.4699 31.554 67.2659 32.0711 66.8579 32.4803C66.4498 32.8896 65.9319 33.0942 65.3043 33.0942C64.6765 33.0942 64.1586 32.8896 63.7506 32.4803C63.3425 32.0711 63.1385 31.554 63.1385 30.9294C63.1385 30.4233 63.149 28.4146 63.17 24.9038C63.1908 22.2974 63.1908 20.1703 63.17 18.5226C63.1385 16.1963 63.0653 14.193 62.9503 12.513C62.7933 10.1973 62.7148 9.13653 62.7148 9.33041C62.7148 8.43651 62.9083 7.67192 63.2955 7.03648C63.7454 6.3149 64.3522 5.9541 65.1159 5.9541C65.7017 5.9541 66.1936 6.15863 66.591 6.56796C66.9887 6.97716 67.1874 7.46725 67.1874 8.03797L67.1717 8.19963C67.8727 7.7903 68.5739 7.48883 69.2745 7.29495C69.9862 7.09028 70.6979 6.98794 71.4095 6.98794C73.8148 6.98794 75.5733 8.03797 76.6821 10.1382C77.5083 11.7213 77.922 13.7731 77.922 16.2931C77.922 18.6517 77.2683 20.6064 75.9595 22.1573C74.5582 23.8268 72.6797 24.6613 70.3255 24.6613ZM71.4095 11.3013C70.7503 11.3013 70.08 11.4628 69.4 11.786C68.7201 12.0983 68.0349 12.5722 67.3444 13.2076C67.4699 15.4262 67.5328 17.6501 67.5328 19.8795C68.4636 20.1919 69.3945 20.348 70.3255 20.348C71.404 20.348 72.2301 19.955 72.8053 19.1687C73.3293 18.4579 73.59 17.4994 73.59 16.2931C73.59 14.8393 73.5279 13.8323 73.4024 13.2722C73.099 11.9583 72.4343 11.3013 71.4095 11.3013Z" fill="#003366"/>
<path d="M93.8186 24.7741C93.3373 24.7741 92.5746 24.2356 91.5278 23.1586C90.5651 23.6326 89.7183 23.988 88.9859 24.2248C88.2536 24.4725 87.6302 24.5964 87.1185 24.5964C84.5974 24.5964 82.7024 23.9018 81.4377 22.5124C80.1812 21.1232 79.5537 19.0446 79.5537 16.2767C79.5537 13.6812 80.4846 11.4625 82.3479 9.62091C84.2098 7.7684 86.4386 6.84229 89.0328 6.84229C90.0272 6.84229 91.1775 7.13311 92.4849 7.71461C94.0655 8.41462 94.8544 9.22776 94.8544 10.154C94.8544 10.5418 94.7344 10.881 94.4944 11.1718C94.3896 11.6026 94.3055 12.1465 94.2434 12.8033C94.191 13.4496 94.1648 14.2089 94.1648 15.0812C94.1648 17.1383 94.3055 18.6192 94.5882 19.5237C94.6199 19.6207 94.8599 20.1807 95.3095 21.2039C95.7178 22.1301 95.9219 22.6579 95.9219 22.7871C95.9219 23.3579 95.7081 23.8317 95.2792 24.2087C94.8599 24.5856 94.373 24.7741 93.8186 24.7741ZM89.9266 13.6918C89.9266 13.3472 89.9486 12.9542 89.99 12.5127C90.0424 12.0603 90.1155 11.5594 90.2093 11.0102C90.001 10.9026 89.8121 10.8271 89.6452 10.7841C89.488 10.7301 89.3514 10.7033 89.237 10.7033C87.8136 10.7033 86.5682 11.2794 85.5021 12.4318C84.4346 13.5735 83.9009 14.8981 83.9009 16.4059C83.9009 17.8491 84.1519 18.9368 84.6539 19.6692C85.156 20.3908 85.9104 20.7516 86.9144 20.7516C87.5626 20.7516 88.175 20.6439 88.7501 20.4284C89.3363 20.2023 89.8852 19.8739 90.3982 19.443C90.0838 16.8798 89.9266 14.9627 89.9266 13.6918Z" fill="#003366"/>
<path d="M113.734 10.0574C112.593 12.5022 110.789 16.3417 108.319 21.5759C106.98 24.3867 105.961 26.7184 105.259 28.5709C105.04 29.2386 104.695 30.2294 104.223 31.5434C103.847 32.5557 103.178 33.062 102.215 33.062C101.619 33.062 101.095 32.8627 100.646 32.4642C100.196 32.0658 99.9711 31.5649 99.9711 30.9618C99.9711 29.9602 101.08 26.9931 103.298 22.0605C102.147 19.7234 100.321 16.2825 97.8209 11.7375C97.5699 11.3283 97.3134 10.9136 97.0513 10.4936C96.77 9.99825 96.6279 9.54591 96.6279 9.13657C96.6279 8.55507 96.8527 8.0434 97.3024 7.60185C97.7533 7.16029 98.2705 6.93959 98.8567 6.93959C99.5477 6.93959 100.086 7.20344 100.473 7.73115C101.958 9.76662 103.691 12.8307 105.667 16.9232C106.787 14.3708 107.467 12.8307 107.708 12.303C108.45 10.6983 109.177 9.28745 109.889 8.07037C110.338 7.29499 110.956 6.90723 111.741 6.90723C112.327 6.90723 112.85 7.11189 113.311 7.52109C113.771 7.93042 114 8.43117 114 9.02346C114 9.33585 113.912 9.68046 113.734 10.0574Z" fill="#003366"/>
</svg>
