<svg width="370" height="190" viewBox="0 0 370 190" fill="none" xmlns="http://www.w3.org/2000/svg">
<rect y="9" width="370" height="181" rx="10.084" fill="#D6E0E9"/>
<path d="M0 130H370V169.832C370 179.339 370 184.093 367.046 187.046C364.093 190 359.339 190 349.832 190H20.1681C10.6607 190 5.90709 190 2.95355 187.046C0 184.093 0 179.339 0 169.832V130Z" fill="#003366"/>
<path d="M167.344 82.1089C169.258 77.324 171.65 68.7111 163.037 62.4907L200.838 79.238C207.169 81.612 210.555 84.6404 211.267 89.9466C211.589 92.3489 210.979 94.7545 210.178 97.0421C206.918 106.347 201.602 120.928 203.709 124.917L177.87 120.388C174.62 132.308 165.098 133.049 159.39 127.962C155.492 124.488 154.754 118.693 156.015 113.625C158.048 105.461 163.039 92.869 167.344 82.1089Z" fill="white"/>
<path d="M169.437 102.684L199.104 110.818" stroke="#6A6C7D" stroke-width="3" stroke-linecap="round"/>
<path d="M167.369 110.948L197.343 117.865" stroke="#6A6C7D" stroke-width="3" stroke-linecap="round"/>
<path d="M166.566 119.031L196.712 125.155" stroke="#6A6C7D" stroke-width="3" stroke-linecap="round"/>
<path d="M223.028 128.523C208.195 136.657 179.332 134.309 164.409 130.578C173.501 128.185 176.914 123.26 177.871 120.389L223.028 128.523Z" fill="#E3E4EA"/>
<path d="M210.596 36.9128C211.325 14.3372 198.216 15.0654 192.39 8.51119C202.294 -3.72306 223.705 0.500532 231.715 6.32645C245.632 1.68773 253.969 11.5726 256.441 17.1706C256.465 17.2249 256.49 17.2719 256.523 17.3215C261.158 24.4005 264.247 47.8733 265.215 58.7602C236.813 58.7602 231.715 51.4777 223.705 36.9128C212.053 42.7387 209.868 41.2823 210.596 36.9128Z" fill="white"/>
<path d="M216.422 25.9886L249.193 21.6191" stroke="#6C6C7A" stroke-width="2" stroke-linecap="round"/>
<path d="M217.879 33.9999L233.9 31.0869" stroke="#6C6C7A" stroke-width="2" stroke-linecap="round"/>
<path d="M213.509 19.4341L229.531 16.8853L245.552 14.3364" stroke="#6C6C7A" stroke-width="2" stroke-linecap="round"/>
<path d="M249.922 8.51042C240.454 0.499958 225.161 -0.957163 216.422 0.499713C221.52 1.95608 231.716 5.1601 231.716 6.32529C241.911 4.14048 241.183 4.86943 249.922 8.51042Z" fill="#E3E4EA"/>
<path d="M247.419 57.3606C235.767 57.3606 215.675 47.6501 210.578 39.6394C212.378 41.2258 214.388 40.2981 223.635 36.8413C226.9 42.4375 235.767 53.7194 247.419 57.3606Z" fill="#E3E4EA"/>
<path d="M131.649 60.9331C129.309 72.0486 124.093 79.7137 114.306 74.3185C113.982 74.1397 113.594 74.0905 113.241 74.2027C108.862 75.5947 102.497 77.5565 96.5345 79.27C102.378 75.8748 101.91 68.3555 103.581 64.7033C103.642 64.5691 103.685 64.4316 103.706 64.2855C104.19 60.9964 106.798 53.7249 113.199 50.8153L138.195 38.0256C133.169 41.16 132.598 53.8113 131.649 60.9331Z" fill="white"/>
<path d="M109.034 62.9004L125.698 54.5682M110.224 57.544L126.888 48.6167" stroke="#6C6C7A" stroke-width="2.60377" stroke-linecap="round"/>
<path d="M113.577 72.7505C107.626 76.9166 90.7128 80.5496 80 81.1448C88.9273 83.5254 114.976 81.1448 124.769 74.6159C118.707 77.414 115.958 75.1311 113.577 72.7505Z" fill="#E3E4EA"/>
<path d="M162.492 28.1973C162.71 27.1309 164.234 27.1309 164.452 28.1973L165.137 31.5501C165.217 31.9426 165.524 32.2494 165.917 32.3296L169.27 33.0149C170.336 33.2329 170.336 34.7564 169.27 34.9744L165.917 35.6597C165.524 35.7399 165.217 36.0467 165.137 36.4392L164.452 39.792C164.234 40.8584 162.71 40.8584 162.492 39.792L161.807 36.4392C161.727 36.0467 161.42 35.7399 161.028 35.6597L157.675 34.9744C156.608 34.7564 156.608 33.2329 157.675 33.0149L161.028 32.3296C161.42 32.2494 161.727 31.9426 161.807 31.5501L162.492 28.1973Z" fill="white"/>
<path d="M131.906 99.0835L132.745 103.187L136.849 104.026L132.745 104.865L131.906 108.968L131.068 104.865L126.964 104.026L131.068 103.187L131.906 99.0835Z" fill="white"/>
<path d="M341.32 20.2944L342.159 24.3981L346.262 25.2368L342.159 26.0756L341.32 30.1792L340.481 26.0756L336.377 25.2368L340.481 24.3981L341.32 20.2944Z" fill="white"/>
<path d="M113.143 12L113.981 16.1036L118.085 16.9424L113.981 17.7811L113.143 21.8848L112.304 17.7811L108.2 16.9424L112.304 16.1036L113.143 12Z" fill="white"/>
<path d="M19.9424 40.2427L20.7811 44.3463L24.8848 45.1851L20.7811 46.0238L19.9424 50.1275L19.1036 46.0238L15 45.1851L19.1036 44.3463L19.9424 40.2427Z" fill="white"/>
<path d="M348.965 100.964L348.126 105.068L344.022 105.906L348.126 106.745L348.965 110.849L349.804 106.745L353.907 105.906L349.804 105.068L348.965 100.964Z" fill="white"/>
<path d="M67.116 57.2256C67.3339 56.1593 68.8575 56.1593 69.0755 57.2256L69.7608 60.5784C69.841 60.971 70.1477 61.2777 70.5403 61.3579L73.8931 62.0432C74.9594 62.2612 74.9594 63.7848 73.8931 64.0027L70.5403 64.688C70.1477 64.7682 69.841 65.075 69.7608 65.4675L69.0755 68.8204C68.8575 69.8867 67.3339 69.8867 67.116 68.8204L66.4307 65.4675C66.3505 65.075 66.0437 64.7682 65.6512 64.688L62.2983 64.0027C61.232 63.7848 61.232 62.2612 62.2983 62.0432L65.6512 61.3579C66.0437 61.2777 66.3505 60.971 66.4307 60.5784L67.116 57.2256Z" fill="white"/>
<path d="M35.908 100.108C36.1259 99.0421 37.6495 99.0421 37.8675 100.108L38.5528 103.461C38.633 103.854 38.9397 104.161 39.3323 104.241L42.6851 104.926C43.7514 105.144 43.7514 106.668 42.6851 106.886L39.3323 107.571C38.9397 107.651 38.633 107.958 38.5528 108.35L37.8675 111.703C37.6495 112.77 36.1259 112.77 35.908 111.703L35.2227 108.35C35.1424 107.958 34.8357 107.651 34.4432 107.571L31.0903 106.886C30.024 106.668 30.024 105.144 31.0903 104.926L34.4432 104.241C34.8357 104.161 35.1424 103.854 35.2227 103.461L35.908 100.108Z" fill="white"/>
<path d="M211.217 57.2246C211.435 56.1583 212.959 56.1583 213.177 57.2246L213.862 60.5775C213.942 60.97 214.249 61.2767 214.641 61.357L217.994 62.0423C219.061 62.2602 219.061 63.7838 217.994 64.0017L214.641 64.687C214.249 64.7673 213.942 65.074 213.862 65.4665L213.177 68.8194C212.959 69.8857 211.435 69.8857 211.217 68.8194L210.532 65.4665C210.452 65.074 210.145 64.7673 209.752 64.687L206.399 64.0017C205.333 63.7838 205.333 62.2602 206.399 62.0423L209.752 61.357C210.145 61.2767 210.452 60.97 210.532 60.5775L211.217 57.2246Z" fill="white"/>
<path d="M282.75 85.2158C282.968 84.1495 284.491 84.1495 284.709 85.2158L285.395 88.5687C285.475 88.9612 285.782 89.2679 286.174 89.3482L289.527 90.0335C290.593 90.2514 290.593 91.775 289.527 91.993L286.174 92.6782C285.782 92.7585 285.475 93.0652 285.395 93.4577L284.709 96.8106C284.491 97.8769 282.968 97.8769 282.75 96.8106L282.064 93.4577C281.984 93.0652 281.677 92.7585 281.285 92.6782L277.932 91.993C276.866 91.775 276.866 90.2514 277.932 90.0335L281.285 89.3482C281.677 89.2679 281.984 88.9612 282.064 88.5687L282.75 85.2158Z" fill="white"/>
<path d="M259.942 111.133C260.16 110.067 261.684 110.067 261.902 111.133L262.587 114.486C262.667 114.879 262.974 115.185 263.366 115.266L266.719 115.951C267.786 116.169 267.786 117.692 266.719 117.91L263.366 118.596C262.974 118.676 262.667 118.983 262.587 119.375L261.902 122.728C261.684 123.794 260.16 123.794 259.942 122.728L259.257 119.375C259.177 118.983 258.87 118.676 258.477 118.596L255.125 117.91C254.058 117.692 254.058 116.169 255.125 115.951L258.477 115.266C258.87 115.185 259.177 114.879 259.257 114.486L259.942 111.133Z" fill="white"/>
</svg>
