<svg width="24" height="24" viewBox="0 0 24 24" fill="none" xmlns="http://www.w3.org/2000/svg">
<g clip-path="url(#clip0_470_27)">
<path d="M4.52 5.93401L1.393 2.80801L2.808 1.39301L22.607 21.193L21.192 22.607L17.882 19.297C16.1232 20.4126 14.0827 21.0033 12 21C6.608 21 2.122 17.12 1.181 12C1.61103 9.67072 2.78263 7.5429 4.521 5.93401H4.52ZM14.757 16.172L13.293 14.708C12.733 14.9759 12.1038 15.0635 11.4919 14.9588C10.8801 14.854 10.3158 14.5621 9.87687 14.1231C9.43794 13.6842 9.14597 13.1199 9.04122 12.5081C8.93646 11.8962 9.02408 11.267 9.292 10.707L7.828 9.24301C7.19172 10.2045 6.90727 11.3563 7.02283 12.5035C7.13839 13.6507 7.64685 14.7226 8.46212 15.5379C9.27739 16.3532 10.3494 16.8616 11.4965 16.9772C12.6437 17.0927 13.7955 16.8083 14.757 16.172V16.172ZM7.974 3.76001C9.221 3.27001 10.58 3.00001 12 3.00001C17.392 3.00001 21.878 6.88001 22.819 12C22.5126 13.6657 21.8239 15.2376 20.807 16.592L16.947 12.732C17.0617 11.9596 16.9938 11.1711 16.7489 10.4297C16.504 9.68821 16.0889 9.01442 15.5367 8.46227C14.9846 7.91013 14.3108 7.49498 13.5693 7.25008C12.8279 7.00518 12.0394 6.93735 11.267 7.05201L7.974 3.76101V3.76001Z" fill="#606060"/>
</g>
<defs>
<clipPath id="clip0_470_27">
<rect width="24" height="24" fill="white"/>
</clipPath>
</defs>
</svg>
