<svg width="15" height="19" viewBox="0 0 15 19" fill="none" xmlns="http://www.w3.org/2000/svg">
<g clip-path="url(#clip0_1625_696)">
<path d="M7.45234 5.66956C8.24342 5.66956 9.0345 5.66504 9.82557 5.67351C9.97259 5.67528 10.1179 5.7056 10.2533 5.76279C11.184 6.16624 11.9248 6.81549 12.5299 7.61335C14.0748 9.64755 14.9224 11.9383 14.8936 14.507C14.8806 15.7061 14.5059 16.7865 13.5781 17.6114C12.9 18.2161 12.0734 18.5155 11.2004 18.702C9.79506 19.0015 8.36773 19.0066 6.94097 18.993C5.78204 18.9823 4.62424 18.9325 3.49413 18.654C2.46516 18.4031 1.53056 17.9844 0.857009 17.121C0.273307 16.3728 0.00603502 15.5021 0.00207963 14.5754C-0.0109166 11.6365 0.977367 9.06724 2.99123 6.90703C3.45562 6.40935 4.02134 6.01704 4.65023 5.75658C4.77935 5.70242 4.91763 5.67345 5.05763 5.67125C5.85549 5.66391 6.65674 5.66956 7.45234 5.66956ZM8.15753 10.6601C8.17188 10.6537 8.18683 10.6488 8.20217 10.6454C8.34287 10.6454 8.4847 10.6454 8.6254 10.6404C8.88871 10.6353 9.04919 10.5008 9.04184 10.2934C9.0345 10.086 8.88137 9.96398 8.63161 9.96342C7.84053 9.96116 7.04946 9.96116 6.25838 9.96342C5.9945 9.96342 5.85153 10.0804 5.84645 10.2866C5.8408 10.5036 5.99111 10.637 6.25555 10.6404C6.55164 10.6443 6.8483 10.6404 7.14495 10.6432C7.40375 10.6432 7.571 10.7856 7.70548 11.0252C7.61169 11.0297 7.54444 11.0353 7.47946 11.0353C7.06245 11.0353 6.64601 11.0308 6.22956 11.0353C5.93121 11.0404 5.77299 11.2659 5.88092 11.5162C5.95042 11.6761 6.08547 11.7134 6.24538 11.7123C6.73076 11.7123 7.21671 11.7123 7.70492 11.7123C7.64841 12.0372 7.41674 12.2513 7.115 12.257C6.82569 12.2621 6.53582 12.257 6.24651 12.257C5.99845 12.257 5.87188 12.37 5.8747 12.5638C5.87753 12.7576 5.99619 12.8661 6.24821 12.8718C6.47423 12.8774 6.70025 12.8718 6.92627 12.8751C7.47268 12.8893 7.64276 13.0712 7.69192 13.6142C7.71683 13.8653 7.7738 14.1122 7.86144 14.3488C7.89557 14.4511 7.9613 14.5398 8.04915 14.6023C8.137 14.6647 8.24243 14.6977 8.35021 14.6963C8.47791 14.6849 8.5961 14.6241 8.67964 14.5268C8.77626 14.4081 8.71128 14.2595 8.59206 14.177C8.43215 14.064 8.38638 13.9115 8.38129 13.7386C8.36773 13.269 8.25528 12.8475 7.88122 12.6028C8.0722 12.3468 8.26545 12.118 8.42084 11.8648C8.48978 11.7518 8.54346 11.706 8.67399 11.7066C8.91301 11.7066 9.06275 11.5467 9.03901 11.341C9.03456 11.2967 9.02143 11.2537 9.00036 11.2145C8.9793 11.1753 8.95071 11.1406 8.91624 11.1124C8.88177 11.0842 8.84208 11.0631 8.79945 11.0503C8.75682 11.0375 8.71208 11.0331 8.66778 11.0376C8.50165 11.0421 8.38525 11.0009 8.31349 10.8466C8.28184 10.7827 8.21799 10.7319 8.15753 10.6601Z" fill="#003366"/>
<path d="M7.43547 4.99097C6.65117 4.99097 5.86687 4.99889 5.08314 4.98476C4.91661 4.98193 4.75387 4.93452 4.61188 4.84745C3.74565 4.28239 2.92293 3.66083 2.24147 2.87597C1.92504 2.51038 1.6589 2.11484 1.58318 1.61816C1.46113 0.815212 2.08552 0.251851 2.85512 0.500476C3.1676 0.601621 3.45804 0.771704 3.75921 0.911273C4.0214 1.03276 4.28246 1.15651 4.54521 1.27686C4.88876 1.43451 5.20858 1.37688 5.49789 1.15029C5.75951 0.94574 6.00644 0.720847 6.26976 0.521383C6.46234 0.367881 6.6707 0.235289 6.89132 0.125844C7.38292 -0.0973535 7.86265 -0.0154193 8.29774 0.28067C8.56558 0.462618 8.80629 0.683554 9.05887 0.887539C9.14702 0.958171 9.2363 1.02711 9.32332 1.09944C9.66744 1.38705 10.0387 1.43847 10.4444 1.239C10.8676 1.0288 11.2841 0.80165 11.7197 0.621962C11.9666 0.520252 12.2531 0.431539 12.5108 0.452446C13.1244 0.506126 13.4499 1.10848 13.2764 1.78089C13.1753 2.17248 12.9617 2.50473 12.7046 2.80816C11.9836 3.65575 11.1021 4.31517 10.1732 4.91413C10.0811 4.97063 9.94714 4.98363 9.82904 4.98476C9.03005 4.9938 8.23333 4.99097 7.43547 4.99097Z" fill="#003366"/>
</g>
<defs>
<clipPath id="clip0_1625_696">
<rect width="14.8949" height="19" fill="white"/>
</clipPath>
</defs>
</svg>
