<svg width="24" height="24" viewBox="0 0 24 24" fill="none" xmlns="http://www.w3.org/2000/svg">
<path d="M9.52442 12.3503H7.86402C7.83114 12.312 7.801 12.2544 7.7736 12.1778C7.75169 12.101 7.74072 12.0243 7.74072 11.9476C7.74072 11.7941 7.77634 11.6846 7.84758 11.6188C7.91882 11.5476 8.00649 11.512 8.11061 11.512H11.5464C11.5684 11.5558 11.593 11.6161 11.6204 11.6927C11.6478 11.764 11.6615 11.8407 11.6615 11.9229C11.6615 12.0764 11.6259 12.1859 11.5546 12.2517C11.4834 12.3175 11.3957 12.3503 11.2916 12.3503H10.7573C10.7464 12.5585 10.6916 12.7504 10.5929 12.9257C10.4943 13.0956 10.3546 13.2381 10.1738 13.3531C9.99841 13.4682 9.77918 13.5504 9.51617 13.5997L10.8231 14.5203C10.8231 14.7341 10.7656 14.9121 10.6505 15.0546C10.5409 15.1916 10.382 15.2601 10.1738 15.2601C10.0532 15.2601 9.9381 15.2245 9.82852 15.1532C9.71895 15.0875 9.60937 15.0053 9.49972 14.9067L8.07773 13.608C8.04485 13.5312 8.02841 13.4436 8.02841 13.3449C8.02841 13.1531 8.10787 13.0079 8.26679 12.9093H8.7435C8.97369 12.9093 9.15454 12.8599 9.28605 12.7613C9.41755 12.6627 9.49701 12.5257 9.52442 12.3503ZM11.2916 10.9859H7.86402C7.83114 10.942 7.801 10.8818 7.7736 10.805C7.75169 10.7283 7.74072 10.6516 7.74072 10.5749C7.74072 10.4215 7.77634 10.3119 7.84758 10.2461C7.91882 10.1803 8.00649 10.1475 8.11061 10.1475H11.5464C11.5684 10.1858 11.593 10.2434 11.6204 10.3201C11.6478 10.3968 11.6615 10.4735 11.6615 10.5502C11.6615 10.7037 11.6259 10.816 11.5546 10.8872C11.4834 10.953 11.3957 10.9859 11.2916 10.9859Z" fill="black"/>
<path fill-rule="evenodd" clip-rule="evenodd" d="M12.5985 6.71565C11.6999 6.25802 10.6826 6 9.6051 6C5.9572 6 3 8.9572 3 12.6051C3 16.253 5.9572 19.2102 9.6051 19.2102C13.253 19.2102 16.2102 16.253 16.2102 12.6051C16.2102 12.5277 16.2089 12.4506 16.2062 12.3739C15.9019 12.3245 15.6079 12.2447 15.3273 12.1375C15.3397 12.2917 15.346 12.4477 15.346 12.6051C15.346 15.7757 12.7757 18.346 9.6051 18.346C6.43447 18.346 3.86417 15.7757 3.86417 12.6051C3.86417 9.43447 6.43447 6.86417 9.6051 6.86417C10.6375 6.86417 11.6062 7.13665 12.4432 7.61363C12.4648 7.30466 12.5176 7.00429 12.5985 6.71565Z" fill="black"/>
<path d="M18.5897 8.48954H15.9473C15.3611 8.48954 14.7988 8.75403 14.3842 9.22484C13.9697 9.69564 13.7368 10.3342 13.7368 11H13C13 10.1122 13.3105 9.26085 13.8632 8.63312C14.4159 8.00538 15.1656 7.65272 15.9473 7.65272H18.5897L17.6553 6.59163L18.1763 6L20 8.07113L18.1763 10.1423L17.6553 9.55063L18.5897 8.48954Z" fill="black"/>
</svg>
