<svg width="24" height="24" viewBox="0 0 24 24" fill="none" xmlns="http://www.w3.org/2000/svg">
<circle cx="12" cy="12" r="12" fill="#FFDDFF"/>
<path d="M17.9993 12.8287V17.334H18.666V18.6673H5.33268V17.334H5.99935V12.8287C5.58893 12.5547 5.25249 12.1837 5.0199 11.7485C4.7873 11.3133 4.66574 10.8274 4.66602 10.334C4.66602 9.78265 4.81535 9.25132 5.08802 8.79865L6.89602 5.66732C6.95453 5.56597 7.03868 5.48182 7.14003 5.42331C7.24137 5.36479 7.35633 5.33399 7.47335 5.33398H16.526C16.643 5.33399 16.758 5.36479 16.8593 5.42331C16.9607 5.48182 17.0448 5.56597 17.1033 5.66732L18.9047 8.78865C19.3024 9.44923 19.4302 10.2377 19.2616 10.9901C19.093 11.7425 18.6409 12.401 17.9993 12.8287V12.8287ZM16.666 13.3153C16.2076 13.3667 15.7436 13.3117 15.31 13.1544C14.8763 12.9972 14.4849 12.7419 14.166 12.4087C13.8862 12.7014 13.5499 12.9343 13.1775 13.0935C12.8051 13.2526 12.4043 13.3347 11.9993 13.3347C11.5945 13.3348 11.1938 13.253 10.8214 13.0941C10.449 12.9352 10.1127 12.7025 9.83268 12.41C9.51377 12.7432 9.12227 12.9982 8.68865 13.1554C8.25504 13.3125 7.79101 13.3675 7.33268 13.316V17.334H16.666V13.316V13.3153ZM7.85868 6.66732L6.23668 9.47598C6.07907 9.86541 6.07434 10.3 6.22344 10.6928C6.37254 11.0855 6.66447 11.4075 7.0408 11.5942C7.41714 11.781 7.85011 11.8187 8.25307 11.6999C8.65603 11.581 8.99924 11.3144 9.21402 10.9533C9.43735 10.3953 10.2273 10.3953 10.4513 10.9533C10.5749 11.2629 10.7884 11.5284 11.0644 11.7154C11.3403 11.9024 11.666 12.0023 11.9993 12.0023C12.3327 12.0023 12.6584 11.9024 12.9343 11.7154C13.2103 11.5284 13.4238 11.2629 13.5473 10.9533C13.7707 10.3953 14.5607 10.3953 14.7847 10.9533C14.8712 11.1663 15.0008 11.359 15.1654 11.5195C15.33 11.68 15.5261 11.8046 15.7412 11.8857C15.9563 11.9667 16.1858 12.0024 16.4154 11.9904C16.6449 11.9785 16.8695 11.9192 17.0751 11.8163C17.2806 11.7133 17.4626 11.569 17.6097 11.3923C17.7568 11.2157 17.8657 11.0105 17.9297 10.7897C17.9936 10.5689 18.0112 10.3373 17.9813 10.1094C17.9514 9.88143 17.8747 9.66216 17.756 9.46532L16.1393 6.66732H7.85935H7.85868Z" fill="#DD49DD"/>
<circle r="4" transform="matrix(-1 0 0 1 20 20)" fill="white"/>
<path d="M22.02 19.6245L22.3205 19.8047C22.339 19.8158 22.3544 19.8315 22.365 19.8503C22.3757 19.8691 22.3813 19.8904 22.3813 19.912C22.3813 19.9336 22.3757 19.9548 22.365 19.9736C22.3544 19.9924 22.339 20.0081 22.3205 20.0192L19.9992 21.412L17.678 20.0192C17.6594 20.0081 17.6441 19.9924 17.6334 19.9736C17.6228 19.9548 17.6172 19.9336 17.6172 19.912C17.6172 19.8904 17.6228 19.8691 17.6334 19.8503C17.6441 19.8315 17.6594 19.8158 17.678 19.8047L17.9785 19.6245L19.9992 20.837L22.02 19.6245ZM22.02 20.7995L22.3205 20.9797C22.339 20.9908 22.3544 21.0065 22.365 21.0253C22.3757 21.0441 22.3813 21.0654 22.3813 21.087C22.3813 21.1086 22.3757 21.1298 22.365 21.1486C22.3544 21.1674 22.339 21.1831 22.3205 21.1942L20.128 22.5097C20.0891 22.5331 20.0446 22.5454 19.9992 22.5454C19.9539 22.5454 19.9094 22.5331 19.8705 22.5097L17.678 21.1942C17.6594 21.1831 17.6441 21.1674 17.6334 21.1486C17.6228 21.1298 17.6172 21.1086 17.6172 21.087C17.6172 21.0654 17.6228 21.0441 17.6334 21.0253C17.6441 21.0065 17.6594 20.9908 17.678 20.9797L17.9785 20.7995L19.9992 22.012L22.02 20.7995V20.7995ZM20.1277 17.3267L22.3205 18.6422C22.339 18.6533 22.3544 18.669 22.365 18.6878C22.3757 18.7066 22.3813 18.7279 22.3813 18.7495C22.3813 18.7711 22.3757 18.7923 22.365 18.8111C22.3544 18.8299 22.339 18.8456 22.3205 18.8567L19.9992 20.2495L17.678 18.8567C17.6594 18.8456 17.6441 18.8299 17.6334 18.8111C17.6228 18.7923 17.6172 18.7711 17.6172 18.7495C17.6172 18.7279 17.6228 18.7066 17.6334 18.6878C17.6441 18.669 17.6594 18.6533 17.678 18.6422L19.8705 17.3267C19.9094 17.3034 19.9539 17.291 19.9992 17.291C20.0446 17.291 20.0891 17.3034 20.128 17.3267H20.1277Z" fill="#DD49DD"/>
</svg>
