<svg width="365" height="142" viewBox="0 0 365 142" fill="none" xmlns="http://www.w3.org/2000/svg">
<rect y="7" width="365" height="135" rx="10" fill="#D6E0E9"/>
<path d="M1 106H365V121.832C365 131.339 365 136.093 362.046 139.046C359.093 142 354.339 142 344.832 142H21.1681C11.6607 142 6.90709 142 3.95355 139.046C1 136.093 1 131.339 1 121.832V106Z" fill="#003366"/>
<path d="M175.888 75.6199C177.119 72.5418 178.658 67.0014 173.117 63L197.434 73.7731C200.971 75.0996 203.079 76.7438 203.872 79.39C204.568 81.7118 203.814 84.1678 203.01 86.4546C200.914 92.422 198.014 100.761 199.28 103.157L182.659 100.244C180.975 106.421 176.672 107.931 173.144 106.574C168.269 104.7 167.828 98.1935 169.356 93.1999C170.914 88.1055 173.557 81.4453 175.888 75.6199Z" fill="white"/>
<path d="M177.234 88.8555L196.318 94.0881" stroke="#6A6C7D" stroke-width="3" stroke-linecap="round"/>
<path d="M175.904 94.1714L195.185 98.621" stroke="#6A6C7D" stroke-width="3" stroke-linecap="round"/>
<path d="M175.387 99.3706L194.779 103.31" stroke="#6A6C7D" stroke-width="3" stroke-linecap="round"/>
<path d="M211.708 105.477C202.166 110.709 183.6 109.198 174 106.798C179.848 105.259 182.044 102.091 182.659 100.244L211.708 105.477Z" fill="#E3E4EA"/>
<path d="M210.895 31.4035C211.515 12.1973 200.363 12.8169 195.406 7.24089C203.832 -3.16736 222.047 0.425848 228.862 5.38223C240.691 1.43914 247.783 9.83139 249.892 14.5959C249.916 14.6502 249.942 14.6973 249.974 14.747C253.913 20.7824 256.539 40.7336 257.362 49.99C233.199 49.99 228.862 43.7945 222.047 31.4035C212.134 36.3599 210.276 35.1208 210.895 31.4035Z" fill="white"/>
<path d="M215.852 22.1099L243.731 18.3926" stroke="#6C6C7A" stroke-width="2" stroke-linecap="round"/>
<path d="M217.091 28.9255L230.721 26.4473" stroke="#6C6C7A" stroke-width="2" stroke-linecap="round"/>
<path d="M213.374 16.5336L227.004 14.3652L240.634 12.1968" stroke="#6C6C7A" stroke-width="2" stroke-linecap="round"/>
<path d="M244.351 7.24021C236.297 0.425338 223.286 -0.814304 215.852 0.42513C220.188 1.66413 228.862 4.38994 228.862 5.38122C237.536 3.5225 236.916 4.14265 244.351 7.24021Z" fill="#E3E4EA"/>
<path d="M242.222 48.7995C232.309 48.7995 215.216 40.5383 210.879 33.7232C212.411 35.0729 214.121 34.2836 221.988 31.3428C224.765 36.1037 232.309 45.7018 242.222 48.7995Z" fill="#E3E4EA"/>
<path d="M143.731 51.8387C141.746 61.2664 137.33 67.7765 129.053 63.2677C128.728 63.0906 128.341 63.0418 127.988 63.1539C124.266 64.3366 118.893 65.9917 113.858 67.4387C118.813 64.5597 118.434 58.1949 119.839 55.0766C119.899 54.942 119.942 54.803 119.964 54.657C120.388 51.8432 122.611 45.6964 128.035 43.231L149.301 32.3502C145.024 35.0167 144.539 45.7798 143.731 51.8387Z" fill="white"/>
<path d="M124.491 53.5122L138.668 46.4236M125.504 48.9552L139.681 41.3604" stroke="#6C6C7A" stroke-width="2.60377" stroke-linecap="round"/>
<path d="M128.357 61.8921C123.293 65.4364 108.905 68.5272 99.791 69.0335C107.386 71.0588 129.547 69.0335 137.878 63.4791C132.721 65.8595 130.382 63.9174 128.357 61.8921Z" fill="#E3E4EA"/>
<path d="M166.219 23.5649C166.436 22.4986 167.96 22.4986 168.178 23.5649L168.448 24.8879C168.529 25.2804 168.835 25.5871 169.228 25.6674L170.551 25.9378C171.617 26.1557 171.617 27.6793 170.551 27.8972L169.228 28.1676C168.835 28.2479 168.529 28.5546 168.448 28.9471L168.178 30.2701C167.96 31.3364 166.436 31.3364 166.219 30.2701L165.948 28.9471C165.868 28.5546 165.561 28.2479 165.169 28.1676L163.846 27.8972C162.779 27.6793 162.779 26.1557 163.846 25.9378L165.169 25.6674C165.561 25.5871 165.868 25.2804 165.948 24.8879L166.219 23.5649Z" fill="white"/>
<path d="M142.919 76.9805L143.564 80.1368L146.72 80.7819L143.564 81.4271L142.919 84.5834L142.274 81.4271L139.117 80.7819L142.274 80.1368L142.919 76.9805Z" fill="white"/>
<path d="M303.991 16.3794L304.637 19.5357L307.793 20.1809L304.637 20.826L303.991 23.9823L303.346 20.826L300.19 20.1809L303.346 19.5357L303.991 16.3794Z" fill="white"/>
<path d="M128.487 10L129.132 13.1563L132.288 13.8015L129.132 14.4466L128.487 17.6029L127.841 14.4466L124.685 13.8015L127.841 13.1563L128.487 10Z" fill="white"/>
<path d="M56.8015 31.7227L57.4466 34.879L60.6029 35.5241L57.4466 36.1693L56.8015 39.3256L56.1563 36.1693L53 35.5241L56.1563 34.879L56.8015 31.7227Z" fill="white"/>
<path d="M309.871 78.4268L309.226 81.5831L306.069 82.2282L309.226 82.8734L309.871 86.0297L310.516 82.8734L313.672 82.2282L310.516 81.5831L309.871 78.4268Z" fill="white"/>
<path d="M92.8587 45.8921C93.0766 44.8258 94.6002 44.8258 94.8181 45.8921L95.0885 47.215C95.1688 47.6075 95.4755 47.9143 95.868 47.9945L97.191 48.2649C98.2573 48.4829 98.2573 50.0064 97.191 50.2244L95.868 50.4948C95.4755 50.575 95.1688 50.8818 95.0885 51.2743L94.8181 52.5972C94.6002 53.6635 93.0766 53.6635 92.8587 52.5972L92.5883 51.2743C92.508 50.8818 92.2013 50.575 91.8088 50.4948L90.4858 50.2244C89.4195 50.0064 89.4195 48.4829 90.4858 48.2649L91.8088 47.9945C92.2013 47.9143 92.508 47.6075 92.5883 47.215L92.8587 45.8921Z" fill="white"/>
<path d="M68.8547 78.8755C69.0727 77.8092 70.5963 77.8092 70.8142 78.8755L71.0846 80.1984C71.1649 80.5909 71.4716 80.8977 71.8641 80.9779L73.187 81.2483C74.2534 81.4662 74.2534 82.9898 73.187 83.2078L71.8641 83.4782C71.4716 83.5584 71.1649 83.8652 71.0846 84.2577L70.8142 85.5806C70.5963 86.6469 69.0727 86.6469 68.8547 85.5806L68.5843 84.2577C68.5041 83.8652 68.1974 83.5584 67.8049 83.4782L66.4819 83.2078C65.4156 82.9898 65.4156 81.4662 66.4819 81.2483L67.8049 80.9779C68.1974 80.8977 68.5041 80.5909 68.5843 80.1984L68.8547 78.8755Z" fill="white"/>
<path d="M203.695 45.8911C203.913 44.8248 205.437 44.8248 205.655 45.8911L205.925 47.214C206.005 47.6066 206.312 47.9133 206.704 47.9935L208.027 48.2639C209.094 48.4819 209.094 50.0055 208.027 50.2234L206.704 50.4938C206.312 50.574 206.005 50.8808 205.925 51.2733L205.655 52.5962C205.437 53.6626 203.913 53.6626 203.695 52.5962L203.425 51.2733C203.344 50.8808 203.038 50.574 202.645 50.4938L201.322 50.2234C200.256 50.0055 200.256 48.4819 201.322 48.2639L202.645 47.9935C203.038 47.9133 203.344 47.6066 203.425 47.214L203.695 45.8911Z" fill="white"/>
<path d="M258.716 67.4214C258.934 66.3551 260.457 66.3551 260.675 67.4214L260.945 68.7443C261.026 69.1368 261.332 69.4436 261.725 69.5238L263.048 69.7942C264.114 70.0121 264.114 71.5357 263.048 71.7537L261.725 72.0241C261.332 72.1043 261.026 72.4111 260.945 72.8036L260.675 74.1265C260.457 75.1928 258.934 75.1928 258.716 74.1265L258.445 72.8036C258.365 72.4111 258.058 72.1043 257.666 72.0241L256.343 71.7537C255.276 71.5357 255.276 70.0121 256.343 69.7942L257.666 69.5238C258.058 69.4436 258.365 69.1368 258.445 68.7443L258.716 67.4214Z" fill="white"/>
<path d="M241.173 87.3555C241.391 86.2891 242.915 86.2891 243.133 87.3555L243.403 88.6784C243.483 89.0709 243.79 89.3777 244.182 89.4579L245.505 89.7283C246.572 89.9462 246.572 91.4698 245.505 91.6878L244.182 91.9582C243.79 92.0384 243.483 92.3451 243.403 92.7377L243.133 94.0606C242.915 95.1269 241.391 95.1269 241.173 94.0606L240.903 92.7377C240.822 92.3451 240.516 92.0384 240.123 91.9582L238.8 91.6878C237.734 91.4698 237.734 89.9462 238.8 89.7283L240.123 89.4579C240.516 89.3777 240.822 89.0709 240.903 88.6784L241.173 87.3555Z" fill="white"/>
</svg>
