<svg width="24" height="24" viewBox="0 0 24 24" fill="none" xmlns="http://www.w3.org/2000/svg">
<circle cx="12" cy="12" r="12" fill="#E6FFE5"/>
<path d="M7.58265 7.00733C8.80045 5.92691 10.3727 5.33143 12.0007 5.33399C15.6827 5.33399 18.6673 8.31866 18.6673 12.0007C18.6695 13.3633 18.2521 14.6935 17.472 15.8107L15.6673 12.0007H17.334C17.334 10.9402 17.0179 9.90387 16.4261 9.02396C15.8342 8.14405 14.9935 7.46055 14.0113 7.06076C13.0292 6.66098 11.9501 6.56306 10.912 6.77952C9.87388 6.99598 8.92388 7.51699 8.18332 8.27599L7.58332 7.00799L7.58265 7.00733ZM16.4187 16.994C15.2009 18.0744 13.6286 18.6699 12.0007 18.6673C8.31865 18.6673 5.33398 15.6827 5.33398 12.0007C5.33398 10.584 5.77598 9.27066 6.52932 8.19066L8.33398 12.0007H6.66732C6.6673 13.0611 6.9834 14.0975 7.57524 14.9774C8.16708 15.8573 9.00778 16.5408 9.98997 16.9406C10.9721 17.3403 12.0512 17.4383 13.0893 17.2218C14.1274 17.0053 15.0774 16.4843 15.818 15.7253L16.418 16.9933L16.4187 16.994ZM12.9433 13.886L11.058 12.0007L9.17198 13.886L8.22932 12.9433L11.058 10.1153L12.9433 12.0007L14.8293 10.1153L15.772 11.058L12.9433 13.886V13.886Z" fill="#54CA50"/>
<circle r="4" transform="matrix(-1 0 0 1 20 20)" fill="white"/>
<path d="M20 23C18.3431 23 17 21.6569 17 20C17 18.3431 18.3431 17 20 17C21.6569 17 23 18.3431 23 20C23 21.6569 21.6569 23 20 23ZM19.7009 21.2L21.8219 19.0787L21.3977 18.6545L19.7009 20.3516L18.8522 19.5029L18.428 19.9271L19.7009 21.2Z" fill="#54CA50"/>
</svg>
