<svg width="24" height="24" viewBox="0 0 24 24" fill="none" xmlns="http://www.w3.org/2000/svg">
<circle cx="12" cy="12" r="12" fill="#E2F1FF"/>
<path d="M12.0007 18.6673C8.31865 18.6673 5.33398 15.6827 5.33398 12.0007C5.33398 8.31865 8.31865 5.33398 12.0007 5.33398C15.6827 5.33398 18.6673 8.31865 18.6673 12.0007C18.6673 15.6827 15.6827 18.6673 12.0007 18.6673ZM12.0007 17.334C13.4151 17.334 14.7717 16.7721 15.7719 15.7719C16.7721 14.7717 17.334 13.4151 17.334 12.0007C17.334 10.5862 16.7721 9.22961 15.7719 8.22941C14.7717 7.22922 13.4151 6.66732 12.0007 6.66732C10.5862 6.66732 9.22961 7.22922 8.22941 8.22941C7.22922 9.22961 6.66732 10.5862 6.66732 12.0007C6.66732 13.4151 7.22922 14.7717 8.22941 15.7719C9.22961 16.7721 10.5862 17.334 12.0007 17.334V17.334ZM8.66732 12.6673H14.6673V14.0007H12.0007V16.0007L8.66732 12.6673ZM12.0007 10.0007V8.00065L15.334 11.334H9.33398V10.0007H12.0007Z" fill="#003366"/>
</svg>
